<svg width="438" height="470" viewBox="0 0 438 470" fill="none" xmlns="http://www.w3.org/2000/svg">
<path d="M370.549 92.0494C355.174 75.7586 337.364 62.3479 317.857 52.3745C288.809 37.8054 256.809 30.7558 224.809 30.3611C131.261 29.1673 124.139 147.027 95.3885 163.41C66.6381 179.793 14.5162 181.729 12.7204 247.29C11.5903 288.525 20.6043 330.945 45.7893 363.063C68.8982 392.483 102.843 407.4 136.28 418.416C173.834 430.795 213.666 442.93 253.165 434.583C293.706 426.011 322.185 391.571 355.482 368.298C376.444 353.645 395.261 338.22 408.199 314.722C409.741 311.908 411.201 309.044 412.579 306.131C429.898 269.595 433.297 227.448 423.74 187.905C415.172 152.394 395.813 118.603 370.549 92.0494Z" fill="#02D084"/>
<path opacity="0.7" d="M370.549 92.0494C355.174 75.7586 337.364 62.3479 317.857 52.3745C288.809 37.8054 256.809 30.7558 224.809 30.3611C131.261 29.1673 124.139 147.027 95.3885 163.41C66.6381 179.793 14.5162 181.729 12.7204 247.29C11.5903 288.525 20.6044 330.945 45.7894 363.063C68.8982 392.483 102.843 407.4 136.28 418.416C173.834 430.795 213.666 442.93 253.165 434.583C293.706 426.011 322.185 391.571 355.482 368.298C376.444 353.645 395.261 338.22 408.199 314.722C409.741 311.908 411.201 309.044 412.579 306.13C429.898 269.595 433.297 227.448 423.74 187.905C415.172 152.394 395.813 118.603 370.549 92.0494Z" fill="white"/>
<g opacity="0.3">
<path d="M332.818 47.6094C334.877 65.8442 338.819 92.4164 341.149 93.2435C344.557 94.4655 367.289 94.4655 367.289 94.4655C367.289 94.4655 370.127 212.738 372.965 213.96C375.804 215.182 384.353 215.784 386.605 212.738C387.892 211.009 384.415 173.073 381.174 140.626" stroke="black" stroke-linecap="round" stroke-linejoin="round"/>
<path d="M392.325 40.353C389.574 29.1677 387.191 20.0879 387.191 20.0879C387.191 20.0879 332.056 26.1881 331.486 31.0476C331.496 34.5566 331.724 38.061 332.17 41.5374" stroke="black" stroke-linecap="round" stroke-linejoin="round"/>
<path d="M380.438 133.323C378.265 111.873 376.373 94.4657 376.373 94.4657C376.373 94.4657 398.58 84.7091 400.244 80.4418C401.12 78.1765 397.397 61.2482 393.683 45.8989" stroke="black" stroke-linecap="round" stroke-linejoin="round"/>
<path d="M356.777 72.8469L357.486 76.9733C357.595 77.6059 357.587 78.2553 357.462 78.8845C357.336 79.5136 357.097 80.1102 356.757 80.64C356.417 81.1699 355.983 81.6226 355.48 81.9724C354.977 82.3222 354.414 82.5622 353.824 82.6787C352.635 82.9119 351.408 82.6291 350.413 81.8925C349.417 81.1559 348.735 80.0256 348.516 78.7498L342.095 41.4341C341.882 40.1596 342.148 38.8467 342.834 37.7815C343.52 36.7163 344.57 35.9852 345.757 35.7474C346.346 35.6306 346.951 35.6396 347.538 35.7738C348.124 35.9081 348.68 36.165 349.174 36.5298C349.668 36.8947 350.09 37.3604 350.416 37.9003C350.742 38.4402 350.965 39.0437 351.074 39.6764L355.331 64.4345" stroke="black" stroke-linecap="round" stroke-linejoin="round"/>
<path d="M370.179 79.4171C368.988 79.6505 367.76 79.368 366.763 78.6315C365.767 77.8951 365.083 76.7647 364.861 75.4882L358.449 38.1725C358.34 37.5399 358.348 36.8904 358.474 36.2613C358.599 35.6321 358.838 35.0356 359.178 34.5057C359.518 33.9759 359.952 33.5231 360.455 33.1733C360.958 32.8235 361.521 32.5835 362.111 32.467C362.7 32.3503 363.304 32.3594 363.89 32.4937C364.476 32.6281 365.031 32.8851 365.524 33.25C366.018 33.615 366.439 34.0807 366.764 34.6205C367.089 35.1604 367.312 35.7637 367.419 36.396L373.84 73.7117C373.949 74.3443 373.941 74.9937 373.816 75.6229C373.691 76.252 373.451 76.8486 373.111 77.3784C372.771 77.9083 372.337 78.361 371.834 78.7108C371.331 79.0606 370.768 79.3006 370.179 79.4171Z" stroke="black" stroke-linecap="round" stroke-linejoin="round"/>
<path d="M378.336 55.4862L374.832 34.9203C374.715 34.2888 374.715 33.6387 374.833 33.0073C374.95 32.3759 375.183 31.7757 375.518 31.2412C375.852 30.7067 376.282 30.2483 376.782 29.8925C377.282 29.5367 377.843 29.2904 378.432 29.1678C379.022 29.051 379.627 29.06 380.213 29.1942C380.8 29.3285 381.356 29.5854 381.849 29.9502C382.343 30.3151 382.765 30.7808 383.091 31.3207C383.417 31.8606 383.641 32.4641 383.749 33.0968L390.171 70.4125C390.285 71.0464 390.281 71.6983 390.161 72.3309C390.04 72.9634 389.803 73.5641 389.466 74.0985C389.128 74.6329 388.695 75.0905 388.192 75.4451C387.689 75.7997 387.126 76.0443 386.535 76.1649C385.946 76.2818 385.34 76.2728 384.754 76.1385C384.168 76.0043 383.612 75.7474 383.118 75.3825C382.624 75.0177 382.202 74.552 381.876 74.0121C381.55 73.4722 381.326 72.8687 381.218 72.236L379.308 61.1259" stroke="black" stroke-linecap="round" stroke-linejoin="round"/>
</g>
<g opacity="0.3">
<path d="M354.63 253.814C354.63 253.814 355.375 251.407 352.756 245.354C350.136 239.301 341.902 234.911 341.902 234.911C341.902 234.911 341.149 231.697 344.889 231.293C348.63 230.888 353.132 236.114 355.401 240.532C357.67 244.95 359.518 253.391 359.518 253.391C359.518 253.391 362.891 248.963 367.753 248.569C372.615 248.174 379.736 250.571 379.736 250.571L369.224 255.393L366.596 256.201" stroke="black" stroke-linecap="round" stroke-linejoin="round"/>
<path d="M366.229 259.002C366.229 259.002 370.355 258.193 372.597 261.408C374.84 264.623 378.957 271.851 378.957 271.851C378.957 271.851 368.857 269.031 364.731 267.433C360.605 265.835 357.994 260.205 357.994 260.205L352.379 269.04L342.27 274.267L346.764 261.408L349.015 256.191C349.015 256.191 346.019 258.194 343.759 258.194C341.499 258.194 334.789 259.453 334.789 259.453C334.789 259.453 343.391 250.608 346.764 249.809C348.788 249.331 350.903 249.613 352.756 250.608" stroke="black" stroke-linecap="round" stroke-linejoin="round"/>
<path d="M336.655 251.774C336.655 251.774 328.771 253.381 325.048 271.851C321.325 290.321 340.028 308.81 354.631 310.821C369.234 312.833 383.828 309.214 391.686 287.52C399.543 265.826 389.058 250.966 383.451 246.163" stroke="black" stroke-linecap="round" stroke-linejoin="round"/>
<path d="M378.589 243.737C378.589 243.737 373.333 238.511 359.869 240.917" stroke="black" stroke-linecap="round" stroke-linejoin="round"/>
</g>
<g opacity="0.3">
<path d="M334.344 328.746C334.344 328.746 334.878 327.026 333.003 322.721C331.129 318.416 325.251 315.258 325.251 315.258C325.251 315.258 324.716 312.964 327.388 312.673C330.06 312.381 333.275 316.122 334.878 319.252C336.481 322.382 337.821 328.436 337.821 328.436C337.821 328.436 340.221 325.277 343.699 324.995C347.177 324.713 352.258 326.424 352.258 326.424L344.768 329.874L342.902 330.447" stroke="black" stroke-linecap="round" stroke-linejoin="round"/>
<path d="M342.631 332.468C342.631 332.468 345.574 331.895 347.177 334.197C348.78 336.5 351.723 341.651 351.723 341.651C351.723 341.651 344.505 339.649 341.562 338.493C338.618 337.337 336.753 333.333 336.753 333.333L332.741 339.649L325.522 343.409L328.728 334.235L330.332 330.475C329.198 331.241 327.921 331.729 326.591 331.904C324.988 331.904 320.17 332.769 320.17 332.769C320.17 332.769 326.302 326.452 328.728 325.879C330.173 325.539 331.682 325.742 333.003 326.452" stroke="black" stroke-linecap="round" stroke-linejoin="round"/>
<path d="M321.492 327.307C321.492 327.307 315.877 328.454 313.205 341.651C310.533 354.848 323.892 368.045 334.326 369.483C344.759 370.921 355.183 368.336 360.798 352.846C366.413 337.355 358.924 326.734 354.912 323.294" stroke="black" stroke-linecap="round" stroke-linejoin="round"/>
<path d="M351.452 321.574C351.452 321.574 347.711 317.814 338.084 319.563" stroke="black" stroke-linecap="round" stroke-linejoin="round"/>
</g>
<g opacity="0.3">
<path d="M406.622 334.423C406.622 334.423 408.111 334.667 411.361 332.261C414.611 329.855 416.328 323.802 416.328 323.802C416.328 323.802 418.124 322.956 418.763 325.437C419.402 327.919 416.818 331.509 414.471 333.492C412.24 335.124 409.863 336.512 407.375 337.638C409.139 338.778 410.457 340.569 411.08 342.676C411.834 345.918 411.177 350.966 411.177 350.966L407.235 344.386L406.49 342.704" stroke="black" stroke-linecap="round" stroke-linejoin="round"/>
<path d="M404.8 342.798C404.8 342.798 405.676 345.496 404.073 347.347C402.47 349.199 398.633 352.752 398.633 352.752C398.633 352.752 399.202 345.637 399.701 342.695C400.201 339.753 403.205 337.374 403.205 337.374L397.433 334.555L393.324 328.276L401.331 329.93L404.633 330.87C403.827 329.918 403.228 328.784 402.881 327.552C402.636 326.039 401.217 321.621 401.217 321.621C401.217 321.621 407.305 326.481 408.137 328.671C408.633 329.985 408.691 331.442 408.304 332.797" stroke="black" stroke-linecap="round" stroke-linejoin="round"/>
<path d="M405.885 322.091C405.885 322.091 404.133 316.959 392.885 316.405C381.638 315.85 372.834 330.438 373.219 340.495C373.605 350.553 377.266 360.018 390.809 363.007C404.352 365.996 411.938 357.367 414.163 353.043" stroke="black" stroke-linecap="round" stroke-linejoin="round"/>
<path d="M415.057 349.5C415.057 349.5 417.554 345.411 414.707 336.585" stroke="black" stroke-linecap="round" stroke-linejoin="round"/>
</g>
<g opacity="0.3">
<path d="M362.787 384.719C362.787 384.719 340.099 372.941 337.9 381.57C335.701 390.199 346.66 393.357 348.149 402.775C349.638 412.193 356.909 418.482 367.176 416.122C377.442 413.763 383.277 398.846 378.152 390.208" stroke="black" stroke-linecap="round" stroke-linejoin="round"/>
<path d="M351.075 416.912C351.075 416.912 347.413 415.342 346.695 425.55C345.977 435.758 362.06 445.965 374.499 441.247C386.939 436.528 401.577 423.191 391.336 398.846" stroke="black" stroke-linecap="round" stroke-linejoin="round"/>
<path d="M346.529 420.371C346.529 420.371 338.075 419.365 335.579 428.765C333.082 438.164 340.896 447.564 353.72 449.246C366.545 450.929 378.135 441.52 378.135 441.52" stroke="black" stroke-linecap="round" stroke-linejoin="round"/>
<path d="M341.833 418.359C341.833 418.359 338.39 414.666 334.632 413.989C330.874 413.312 324.313 405.595 324.313 401.901C324.313 398.207 317.743 397.878 315.238 405.595C312.732 413.312 313.985 428.765 319.302 436.82C324.62 444.875 333.388 449.913 341.202 449.246" stroke="black" stroke-linecap="round" stroke-linejoin="round"/>
<path d="M354.666 416.339C354.666 416.339 366.869 423.059 375.944 417.015C385.019 410.971 384.073 401.234 382.199 394.184" stroke="black" stroke-linecap="round" stroke-linejoin="round"/>
<path d="M337.454 421.038C337.454 421.038 330.568 425.07 330.568 435.476C330.568 445.881 344.654 449.246 344.654 449.246" stroke="black" stroke-linecap="round" stroke-linejoin="round"/>
<path d="M366.555 384.775C366.555 384.775 372.476 385.386 375.315 387.802" stroke="black" stroke-linecap="round" stroke-linejoin="round"/>
</g>
<g opacity="0.3">
<path d="M282.501 446.069C282.501 446.069 306.398 437.497 302.342 429.667C298.286 421.838 288.396 427.787 281.213 422.148C274.03 416.508 264.7 417.495 258.901 426.847C253.102 436.2 258.638 451.286 267.924 453.617" stroke="black" stroke-linecap="round" stroke-linejoin="round"/>
<path d="M269.913 414.261C269.913 414.261 273.548 412.645 267.425 404.787C261.302 396.929 243.142 401.704 237.308 414.402C231.474 427.101 229.696 447.62 252.875 457.358" stroke="black" stroke-linecap="round" stroke-linejoin="round"/>
<path d="M270.912 408.377C270.912 408.377 277.613 402.738 273.285 394.166C268.958 385.593 257.237 384.7 246.962 393.113C236.686 401.525 234.531 416.94 234.531 416.94" stroke="black" stroke-linecap="round" stroke-linejoin="round"/>
<path d="M275.58 406.3C275.58 406.3 280.451 406.366 283.569 404.025C286.688 401.685 296.429 402.287 298.829 404.965C301.23 407.644 306.153 402.916 302.92 395.566C299.688 388.216 288.729 378.055 279.68 376.269C270.631 374.483 261.074 377.463 255.914 383.789" stroke="black" stroke-linecap="round" stroke-linejoin="round"/>
<path d="M267.714 417.363C267.714 417.363 254.575 421.706 252.052 432.835C249.529 443.964 256.51 450.224 262.441 453.861" stroke="black" stroke-linecap="round" stroke-linejoin="round"/>
<path d="M276.965 401.093C276.965 401.093 279.269 393.047 272.489 385.603C265.708 378.158 253.453 386.307 253.453 386.307" stroke="black" stroke-linecap="round" stroke-linejoin="round"/>
<path d="M279.76 448.852C279.76 448.852 275.126 452.856 271.525 453.26" stroke="black" stroke-linecap="round" stroke-linejoin="round"/>
</g>
<g opacity="0.3">
<path d="M64.0879 283.422C80.7436 275.09 99.6083 273.345 117.347 278.496C135.086 283.647 150.556 295.361 161.024 311.568C171.491 327.774 176.281 347.43 174.547 367.06C172.813 386.691 164.666 405.031 151.548 418.839" stroke="black" stroke-linecap="round" stroke-linejoin="round"/>
<path d="M147.246 423.05C138.928 430.581 129.232 436.158 118.783 439.422C108.333 442.686 97.3625 443.564 86.5774 442C75.7923 440.436 65.4323 436.464 56.1654 430.341C46.8985 424.217 38.9304 416.078 32.7746 406.448C26.6189 396.818 22.4122 385.911 20.4257 374.429C18.4393 362.948 18.7171 351.147 21.2414 339.788C23.7657 328.429 28.4804 317.763 35.0816 308.479C41.6827 299.195 50.0238 291.498 59.5671 285.884" stroke="black" stroke-linecap="round" stroke-linejoin="round"/>
<path d="M148.244 368.402C146.771 377.803 143.074 386.641 137.508 394.071C131.942 401.501 124.692 407.274 116.453 410.839C108.213 414.404 99.2586 415.641 90.4461 414.431C81.6336 413.222 73.2576 409.607 66.1191 403.932" stroke="black" stroke-linecap="round" stroke-linejoin="round"/>
<path d="M61.1528 399.439C55.0323 393.149 50.4397 385.348 47.7759 376.715C45.1122 368.082 44.4583 358.882 45.8714 349.915C47.2844 340.949 50.7215 332.491 55.8824 325.278C61.0434 318.065 67.7714 312.318 75.479 308.537C83.1867 304.757 91.6396 303.058 100.1 303.589C108.56 304.121 116.771 306.867 124.014 311.586C131.258 316.306 137.315 322.857 141.656 330.667C145.997 338.477 148.491 347.308 148.919 356.39" stroke="black" stroke-linecap="round" stroke-linejoin="round"/>
<path d="M71.832 336.209H91.2092C92.0362 336.209 92.8295 336.562 93.4143 337.189C93.9991 337.817 94.3277 338.668 94.3277 339.555V350.252" stroke="black" stroke-linecap="round" stroke-linejoin="round"/>
<path d="M94.3539 356.643V379.531C94.3539 379.97 94.2732 380.405 94.1164 380.81C93.9595 381.215 93.7297 381.584 93.44 381.894C93.1503 382.204 92.8064 382.449 92.4281 382.616C92.0498 382.784 91.6445 382.869 91.2353 382.868H58.7357C58.3266 382.869 57.9213 382.784 57.543 382.616C57.1647 382.449 56.8208 382.204 56.5311 381.894C56.2414 381.584 56.0116 381.215 55.8547 380.81C55.6979 380.405 55.6172 379.97 55.6172 379.531V339.555C55.6172 338.668 55.9457 337.817 56.5306 337.189C57.1154 336.562 57.9087 336.209 58.7357 336.209H66.7949" stroke="black" stroke-linecap="round" stroke-linejoin="round"/>
<path d="M63.5171 343.897C63.5189 344.099 63.4646 344.297 63.3613 344.465C63.258 344.633 63.1104 344.765 62.9372 344.843C62.7639 344.921 62.573 344.942 62.3886 344.903C62.2043 344.864 62.0349 344.767 61.9021 344.625C61.7693 344.482 61.679 344.3 61.6428 344.102C61.6065 343.905 61.626 343.7 61.6987 343.514C61.7714 343.328 61.894 343.17 62.0509 343.059C62.2078 342.948 62.3919 342.89 62.5798 342.892C62.8284 342.892 63.0668 342.998 63.2426 343.186C63.4184 343.375 63.5171 343.631 63.5171 343.897Z" stroke="black" stroke-linecap="round" stroke-linejoin="round"/>
<path d="M71.2264 344.903C71.744 344.903 72.1637 344.453 72.1637 343.897C72.1637 343.342 71.744 342.892 71.2264 342.892C70.7087 342.892 70.2891 343.342 70.2891 343.897C70.2891 344.453 70.7087 344.903 71.2264 344.903Z" stroke="black" stroke-linecap="round" stroke-linejoin="round"/>
<path d="M79.8807 344.903C80.3983 344.903 80.818 344.453 80.818 343.897C80.818 343.342 80.3983 342.892 79.8807 342.892C79.363 342.892 78.9434 343.342 78.9434 343.897C78.9434 344.453 79.363 344.903 79.8807 344.903Z" stroke="black" stroke-linecap="round" stroke-linejoin="round"/>
<path d="M88.5272 344.903C89.0448 344.903 89.4645 344.453 89.4645 343.897C89.4645 343.342 89.0448 342.892 88.5272 342.892C88.0095 342.892 87.5898 343.342 87.5898 343.897C87.5898 344.453 88.0095 344.903 88.5272 344.903Z" stroke="black" stroke-linecap="round" stroke-linejoin="round"/>
<path d="M63.5171 351.85C63.5189 352.051 63.4646 352.249 63.3613 352.417C63.258 352.585 63.1104 352.717 62.9372 352.795C62.7639 352.873 62.573 352.894 62.3886 352.855C62.2043 352.816 62.0349 352.719 61.9021 352.577C61.7693 352.434 61.679 352.252 61.6428 352.055C61.6065 351.857 61.626 351.652 61.6987 351.466C61.7714 351.28 61.894 351.122 62.0509 351.011C62.2078 350.9 62.3919 350.842 62.5798 350.844C62.8284 350.844 63.0668 350.95 63.2426 351.138C63.4184 351.327 63.5171 351.583 63.5171 351.85Z" stroke="black" stroke-linecap="round" stroke-linejoin="round"/>
<path d="M72.1734 351.85C72.1751 352.051 72.1211 352.248 72.0182 352.416C71.9153 352.584 71.7682 352.716 71.5955 352.794C71.4227 352.872 71.2322 352.894 71.0481 352.856C70.8641 352.818 70.6947 352.722 70.5615 352.58C70.4283 352.438 70.3373 352.258 70.3001 352.06C70.2629 351.863 70.2811 351.659 70.3524 351.473C70.4238 351.287 70.545 351.127 70.7008 351.016C70.8565 350.904 71.0398 350.844 71.2273 350.844C71.3511 350.843 71.4739 350.868 71.5887 350.918C71.7034 350.968 71.8078 351.041 71.8957 351.135C71.9837 351.229 72.0535 351.34 72.1012 351.462C72.1488 351.585 72.1734 351.717 72.1734 351.85Z" stroke="black" stroke-linecap="round" stroke-linejoin="round"/>
<path d="M80.8179 351.85C80.8196 352.051 80.7654 352.249 80.6621 352.417C80.5588 352.585 80.4112 352.717 80.2379 352.795C80.0647 352.873 79.8738 352.894 79.6894 352.855C79.5051 352.816 79.3357 352.719 79.2029 352.577C79.07 352.434 78.9798 352.252 78.9435 352.055C78.9073 351.857 78.9268 351.652 78.9995 351.466C79.0722 351.28 79.1948 351.122 79.3517 351.011C79.5086 350.9 79.6927 350.842 79.8806 350.844C80.1292 350.844 80.3676 350.95 80.5434 351.138C80.7191 351.327 80.8179 351.583 80.8179 351.85Z" stroke="black" stroke-linecap="round" stroke-linejoin="round"/>
<path d="M89.4742 351.85C89.4759 352.051 89.4219 352.248 89.319 352.416C89.2161 352.584 89.0689 352.716 88.8962 352.794C88.7235 352.872 88.533 352.894 88.3489 352.856C88.1648 352.818 87.9954 352.722 87.8623 352.58C87.7291 352.438 87.6381 352.258 87.6009 352.06C87.5636 351.863 87.5819 351.659 87.6532 351.473C87.7245 351.287 87.8458 351.127 88.0016 351.016C88.1573 350.904 88.3406 350.844 88.5281 350.844C88.6519 350.843 88.7747 350.868 88.8895 350.918C89.0042 350.968 89.1086 351.041 89.1965 351.135C89.2845 351.229 89.3543 351.34 89.402 351.462C89.4496 351.585 89.4742 351.717 89.4742 351.85Z" stroke="black" stroke-linecap="round" stroke-linejoin="round"/>
<path d="M63.5172 359.801C63.5172 360.003 63.4614 360.199 63.3571 360.366C63.2527 360.533 63.1045 360.663 62.9311 360.74C62.7577 360.817 62.567 360.836 62.3833 360.796C62.1995 360.756 62.031 360.659 61.899 360.516C61.767 360.373 61.6776 360.191 61.6421 359.994C61.6066 359.796 61.6266 359.592 61.6996 359.406C61.7725 359.221 61.8951 359.063 62.0519 358.953C62.2086 358.842 62.3924 358.784 62.5798 358.786C62.7037 358.786 62.8263 358.812 62.9406 358.864C63.0549 358.915 63.1586 358.99 63.2457 359.084C63.3329 359.178 63.4018 359.29 63.4483 359.414C63.4949 359.537 63.5183 359.668 63.5172 359.801Z" stroke="black" stroke-linecap="round" stroke-linejoin="round"/>
<path d="M72.1734 359.801C72.1734 360.002 72.1179 360.198 72.014 360.365C71.91 360.532 71.7622 360.662 71.5894 360.739C71.4165 360.816 71.2263 360.836 71.0428 360.797C70.8592 360.758 70.6907 360.661 70.5583 360.519C70.426 360.377 70.3359 360.196 70.2994 359.999C70.2629 359.802 70.2817 359.598 70.3533 359.413C70.4249 359.227 70.5461 359.069 70.7017 358.957C70.8573 358.846 71.0402 358.786 71.2273 358.786C71.3519 358.785 71.4754 358.81 71.5908 358.861C71.7061 358.911 71.8108 358.986 71.8989 359.081C71.987 359.175 72.0566 359.288 72.1038 359.411C72.1509 359.535 72.1746 359.668 72.1734 359.801Z" stroke="black" stroke-linecap="round" stroke-linejoin="round"/>
<path d="M80.8179 359.801C80.8179 360.003 80.7622 360.199 80.6579 360.366C80.5535 360.533 80.4052 360.663 80.2319 360.74C80.0585 360.817 79.8678 360.836 79.684 360.796C79.5003 360.756 79.3317 360.659 79.1998 360.516C79.0678 360.373 78.9784 360.191 78.9429 359.994C78.9074 359.796 78.9274 359.592 79.0003 359.406C79.0733 359.221 79.1959 359.063 79.3526 358.953C79.5094 358.842 79.6931 358.784 79.8806 358.786C80.0045 358.786 80.1271 358.812 80.2414 358.864C80.3556 358.915 80.4594 358.99 80.5465 359.084C80.6337 359.178 80.7025 359.29 80.7491 359.414C80.7957 359.537 80.8191 359.668 80.8179 359.801Z" stroke="black" stroke-linecap="round" stroke-linejoin="round"/>
<path d="M89.4742 359.801C89.4742 360.002 89.4187 360.198 89.3147 360.365C89.2108 360.532 89.063 360.662 88.8902 360.739C88.7173 360.816 88.5271 360.836 88.3435 360.797C88.16 360.758 87.9914 360.661 87.8591 360.519C87.7268 360.377 87.6367 360.196 87.6002 359.999C87.5637 359.802 87.5824 359.598 87.654 359.413C87.7257 359.227 87.8469 359.069 88.0025 358.957C88.1581 358.846 88.341 358.786 88.5281 358.786C88.6527 358.785 88.7762 358.81 88.8915 358.861C89.0069 358.911 89.1116 358.986 89.1997 359.081C89.2878 359.175 89.3574 359.288 89.4046 359.411C89.4517 359.535 89.4754 359.668 89.4742 359.801Z" stroke="black" stroke-linecap="round" stroke-linejoin="round"/>
<path d="M63.5172 367.753C63.5172 367.955 63.4614 368.151 63.3571 368.318C63.2527 368.486 63.1045 368.616 62.9311 368.692C62.7577 368.769 62.567 368.788 62.3833 368.748C62.1995 368.708 62.031 368.611 61.899 368.468C61.767 368.325 61.6776 368.143 61.6421 367.946C61.6066 367.748 61.6266 367.544 61.6996 367.358C61.7725 367.173 61.8951 367.015 62.0519 366.905C62.2086 366.794 62.3924 366.736 62.5798 366.738C62.7037 366.738 62.8263 366.765 62.9406 366.816C63.0549 366.867 63.1586 366.942 63.2457 367.036C63.3329 367.131 63.4018 367.243 63.4483 367.366C63.4949 367.489 63.5183 367.621 63.5172 367.753Z" stroke="black" stroke-linecap="round" stroke-linejoin="round"/>
<path d="M71.2264 368.759C71.744 368.759 72.1637 368.309 72.1637 367.753C72.1637 367.198 71.744 366.748 71.2264 366.748C70.7087 366.748 70.2891 367.198 70.2891 367.753C70.2891 368.309 70.7087 368.759 71.2264 368.759Z" stroke="black" stroke-linecap="round" stroke-linejoin="round"/>
<path d="M79.8807 368.759C80.3983 368.759 80.818 368.309 80.818 367.753C80.818 367.198 80.3983 366.748 79.8807 366.748C79.363 366.748 78.9434 367.198 78.9434 367.753C78.9434 368.309 79.363 368.759 79.8807 368.759Z" stroke="black" stroke-linecap="round" stroke-linejoin="round"/>
<path d="M88.5272 368.759C89.0448 368.759 89.4645 368.309 89.4645 367.753C89.4645 367.198 89.0448 366.748 88.5272 366.748C88.0095 366.748 87.5898 367.198 87.5898 367.753C87.5898 368.309 88.0095 368.759 88.5272 368.759Z" stroke="black" stroke-linecap="round" stroke-linejoin="round"/>
<path d="M63.5171 375.696C63.5189 375.897 63.4646 376.095 63.3613 376.263C63.258 376.432 63.1104 376.563 62.9372 376.641C62.7639 376.719 62.573 376.74 62.3886 376.701C62.2043 376.662 62.0349 376.565 61.9021 376.423C61.7693 376.28 61.679 376.099 61.6428 375.901C61.6065 375.703 61.626 375.498 61.6987 375.312C61.7714 375.126 61.894 374.968 62.0509 374.857C62.2078 374.746 62.3919 374.688 62.5798 374.69C62.8284 374.69 63.0668 374.796 63.2426 374.985C63.4184 375.173 63.5171 375.429 63.5171 375.696Z" stroke="black" stroke-linecap="round" stroke-linejoin="round"/>
<path d="M71.2264 376.701C71.744 376.701 72.1637 376.251 72.1637 375.696C72.1637 375.14 71.744 374.69 71.2264 374.69C70.7087 374.69 70.2891 375.14 70.2891 375.696C70.2891 376.251 70.7087 376.701 71.2264 376.701Z" stroke="black" stroke-linecap="round" stroke-linejoin="round"/>
<path d="M79.8807 376.701C80.3983 376.701 80.818 376.251 80.818 375.696C80.818 375.14 80.3983 374.69 79.8807 374.69C79.363 374.69 78.9434 375.14 78.9434 375.696C78.9434 376.251 79.363 376.701 79.8807 376.701Z" stroke="black" stroke-linecap="round" stroke-linejoin="round"/>
<path d="M88.5272 376.701C89.0448 376.701 89.4645 376.251 89.4645 375.696C89.4645 375.14 89.0448 374.69 88.5272 374.69C88.0095 374.69 87.5898 375.14 87.5898 375.696C87.5898 376.251 88.0095 376.701 88.5272 376.701Z" stroke="black" stroke-linecap="round" stroke-linejoin="round"/>
<path d="M108.755 386.073L98.1637 378.647C97.4773 378.155 97 377.392 96.8359 376.524C96.6718 375.656 96.8342 374.753 97.2877 374.013L117.663 340.551C118.122 339.815 118.833 339.303 119.642 339.127C120.451 338.95 121.292 339.125 121.982 339.611L149.191 358.683C149.879 359.173 150.358 359.936 150.522 360.805C150.686 361.674 150.523 362.577 150.067 363.317L129.647 396.75C129.19 397.489 128.479 398.003 127.669 398.179C126.859 398.355 126.018 398.179 125.328 397.69L113.555 389.438" stroke="black" stroke-linecap="round" stroke-linejoin="round"/>
<path d="M122.034 348.832C121.932 349.001 121.785 349.133 121.613 349.212C121.441 349.291 121.25 349.314 121.066 349.276C120.882 349.239 120.712 349.144 120.579 349.004C120.445 348.863 120.353 348.682 120.315 348.486C120.277 348.289 120.294 348.084 120.364 347.898C120.434 347.711 120.555 347.552 120.71 347.439C120.865 347.326 121.048 347.265 121.235 347.264C121.423 347.262 121.606 347.321 121.763 347.432C121.969 347.581 122.113 347.811 122.164 348.073C122.215 348.334 122.168 348.607 122.034 348.832Z" stroke="black" stroke-linecap="round" stroke-linejoin="round"/>
<path d="M129.271 353.908C129.169 354.073 129.023 354.202 128.853 354.279C128.682 354.356 128.494 354.377 128.313 354.339C128.131 354.301 127.964 354.207 127.832 354.068C127.7 353.929 127.61 353.751 127.572 353.556C127.535 353.362 127.551 353.16 127.62 352.976C127.689 352.792 127.808 352.634 127.96 352.522C128.113 352.41 128.293 352.348 128.478 352.346C128.663 352.343 128.844 352.399 128.999 352.507C129.208 352.655 129.353 352.885 129.404 353.147C129.455 353.41 129.407 353.683 129.271 353.908Z" stroke="black" stroke-linecap="round" stroke-linejoin="round"/>
<path d="M136.516 358.984C136.449 359.095 136.361 359.19 136.26 359.265C136.158 359.34 136.043 359.393 135.923 359.421C135.802 359.448 135.677 359.45 135.556 359.426C135.434 359.402 135.318 359.352 135.215 359.28C135.111 359.207 135.022 359.114 134.952 359.005C134.882 358.896 134.833 358.773 134.808 358.643C134.782 358.514 134.78 358.38 134.803 358.249C134.825 358.119 134.872 357.995 134.939 357.884C135.075 357.66 135.288 357.502 135.532 357.447C135.776 357.391 136.031 357.442 136.24 357.588C136.449 357.734 136.596 357.963 136.647 358.224C136.699 358.486 136.652 358.759 136.516 358.984Z" stroke="black" stroke-linecap="round" stroke-linejoin="round"/>
<path d="M143.759 364.059C143.658 364.226 143.513 364.357 143.342 364.435C143.172 364.513 142.983 364.535 142.801 364.498C142.619 364.461 142.451 364.367 142.319 364.228C142.186 364.089 142.095 363.911 142.057 363.716C142.019 363.521 142.036 363.319 142.105 363.134C142.174 362.949 142.293 362.791 142.446 362.679C142.599 362.567 142.78 362.506 142.965 362.504C143.151 362.502 143.333 362.559 143.488 362.668C143.696 362.814 143.841 363.043 143.892 363.303C143.943 363.564 143.895 363.836 143.759 364.059Z" stroke="black" stroke-linecap="round" stroke-linejoin="round"/>
<path d="M117.979 355.487C117.877 355.656 117.731 355.788 117.558 355.867C117.386 355.946 117.196 355.968 117.012 355.931C116.827 355.894 116.658 355.799 116.524 355.658C116.39 355.518 116.298 355.337 116.26 355.14C116.222 354.943 116.239 354.739 116.309 354.553C116.38 354.366 116.5 354.206 116.655 354.094C116.81 353.981 116.993 353.92 117.181 353.918C117.368 353.917 117.551 353.976 117.708 354.087C117.914 354.236 118.058 354.466 118.109 354.728C118.16 354.989 118.113 355.262 117.979 355.487Z" stroke="black" stroke-linecap="round" stroke-linejoin="round"/>
<path d="M125.266 360.563C125.164 360.731 125.018 360.864 124.845 360.943C124.673 361.022 124.483 361.044 124.299 361.007C124.114 360.97 123.945 360.875 123.811 360.734C123.677 360.593 123.585 360.413 123.547 360.216C123.509 360.019 123.526 359.815 123.597 359.628C123.667 359.442 123.787 359.282 123.942 359.169C124.097 359.056 124.28 358.995 124.468 358.994C124.655 358.993 124.839 359.051 124.995 359.162C125.201 359.312 125.345 359.542 125.396 359.803C125.447 360.065 125.4 360.337 125.266 360.563Z" stroke="black" stroke-linecap="round" stroke-linejoin="round"/>
<path d="M132.46 365.667C132.319 365.879 132.108 366.024 131.87 366.073C131.632 366.121 131.385 366.069 131.182 365.927C130.979 365.784 130.836 365.563 130.782 365.31C130.727 365.056 130.767 364.79 130.892 364.567C130.957 364.451 131.043 364.35 131.145 364.271C131.247 364.191 131.363 364.135 131.486 364.105C131.608 364.074 131.736 364.071 131.86 364.095C131.984 364.119 132.102 364.169 132.208 364.243C132.314 364.317 132.404 364.413 132.474 364.526C132.544 364.638 132.593 364.764 132.616 364.897C132.64 365.03 132.638 365.167 132.611 365.299C132.584 365.431 132.533 365.556 132.46 365.667Z" stroke="black" stroke-linecap="round" stroke-linejoin="round"/>
<path d="M139.704 370.714C139.638 370.826 139.551 370.922 139.45 370.997C139.348 371.072 139.234 371.124 139.113 371.152C138.992 371.179 138.868 371.18 138.747 371.155C138.626 371.13 138.51 371.079 138.408 371.006C138.3 370.936 138.206 370.844 138.132 370.734C138.058 370.625 138.005 370.5 137.977 370.368C137.949 370.236 137.946 370.1 137.968 369.967C137.99 369.833 138.037 369.706 138.106 369.593C138.175 369.48 138.264 369.383 138.369 369.308C138.474 369.232 138.592 369.181 138.716 369.155C138.84 369.13 138.967 369.132 139.09 369.161C139.213 369.19 139.33 369.245 139.433 369.323C139.536 369.395 139.626 369.487 139.696 369.596C139.766 369.705 139.815 369.828 139.84 369.958C139.866 370.087 139.867 370.221 139.843 370.351C139.82 370.48 139.773 370.604 139.704 370.714Z" stroke="black" stroke-linecap="round" stroke-linejoin="round"/>
<path d="M113.923 362.142C113.821 362.307 113.675 362.436 113.505 362.513C113.334 362.59 113.147 362.61 112.965 362.573C112.783 362.535 112.616 362.441 112.484 362.302C112.353 362.162 112.262 361.984 112.225 361.79C112.187 361.596 112.204 361.394 112.273 361.21C112.342 361.026 112.46 360.868 112.613 360.756C112.765 360.644 112.945 360.582 113.13 360.58C113.315 360.577 113.497 360.633 113.652 360.741C113.86 360.889 114.006 361.119 114.057 361.381C114.107 361.644 114.059 361.917 113.923 362.142Z" stroke="black" stroke-linecap="round" stroke-linejoin="round"/>
<path d="M121.167 367.217C121.021 367.418 120.81 367.552 120.576 367.593C120.342 367.634 120.102 367.58 119.904 367.44C119.706 367.301 119.563 367.086 119.505 366.84C119.447 366.593 119.478 366.332 119.59 366.108C119.73 365.887 119.944 365.732 120.188 365.678C120.432 365.623 120.686 365.673 120.896 365.817C121 365.889 121.09 365.983 121.16 366.093C121.23 366.203 121.279 366.326 121.304 366.456C121.329 366.587 121.33 366.721 121.307 366.852C121.283 366.982 121.236 367.107 121.167 367.217Z" stroke="black" stroke-linecap="round" stroke-linejoin="round"/>
<path d="M128.412 372.293C128.309 372.458 128.164 372.587 127.993 372.664C127.823 372.741 127.635 372.762 127.453 372.724C127.272 372.687 127.104 372.592 126.973 372.453C126.841 372.314 126.751 372.136 126.713 371.942C126.675 371.747 126.692 371.545 126.761 371.361C126.83 371.177 126.948 371.019 127.101 370.907C127.253 370.795 127.433 370.734 127.618 370.731C127.803 370.728 127.985 370.785 128.14 370.892C128.348 371.04 128.494 371.27 128.545 371.533C128.596 371.795 128.548 372.068 128.412 372.293Z" stroke="black" stroke-linecap="round" stroke-linejoin="round"/>
<path d="M135.648 377.369C135.547 377.536 135.402 377.666 135.231 377.744C135.06 377.822 134.872 377.844 134.69 377.808C134.508 377.771 134.34 377.677 134.207 377.538C134.075 377.398 133.984 377.22 133.946 377.025C133.908 376.831 133.924 376.628 133.994 376.444C134.063 376.259 134.182 376.101 134.335 375.988C134.488 375.876 134.669 375.815 134.854 375.814C135.04 375.812 135.221 375.869 135.376 375.978C135.48 376.049 135.57 376.142 135.64 376.251C135.71 376.36 135.759 376.483 135.784 376.612C135.809 376.742 135.81 376.875 135.787 377.005C135.764 377.135 135.716 377.259 135.648 377.369Z" stroke="black" stroke-linecap="round" stroke-linejoin="round"/>
<path d="M109.876 368.797C109.774 368.965 109.627 369.097 109.455 369.177C109.283 369.256 109.092 369.278 108.908 369.241C108.724 369.204 108.554 369.109 108.42 368.968C108.287 368.827 108.195 368.647 108.157 368.45C108.118 368.253 108.136 368.048 108.206 367.862C108.276 367.676 108.397 367.516 108.552 367.403C108.707 367.29 108.89 367.229 109.077 367.228C109.264 367.227 109.448 367.285 109.604 367.396C109.811 367.545 109.955 367.776 110.006 368.037C110.056 368.299 110.01 368.571 109.876 368.797Z" stroke="black" stroke-linecap="round" stroke-linejoin="round"/>
<path d="M117.111 373.872C117.009 374.037 116.863 374.166 116.692 374.243C116.522 374.32 116.334 374.341 116.152 374.303C115.971 374.266 115.804 374.171 115.672 374.032C115.54 373.893 115.45 373.715 115.412 373.521C115.375 373.326 115.391 373.124 115.46 372.94C115.529 372.756 115.648 372.598 115.8 372.486C115.953 372.374 116.133 372.313 116.318 372.31C116.503 372.308 116.684 372.364 116.839 372.471C116.943 372.544 117.033 372.638 117.103 372.747C117.173 372.857 117.222 372.981 117.248 373.111C117.273 373.241 117.274 373.376 117.25 373.506C117.227 373.637 117.179 373.761 117.111 373.872Z" stroke="black" stroke-linecap="round" stroke-linejoin="round"/>
<path d="M124.391 378.948C124.255 379.171 124.042 379.327 123.799 379.381C123.556 379.436 123.303 379.385 123.095 379.239C122.94 379.13 122.818 378.975 122.745 378.792C122.672 378.609 122.652 378.407 122.686 378.211C122.72 378.015 122.808 377.835 122.938 377.693C123.067 377.551 123.234 377.453 123.415 377.412C123.597 377.372 123.785 377.39 123.957 377.464C124.129 377.538 124.277 377.666 124.381 377.83C124.486 377.994 124.543 378.188 124.545 378.387C124.546 378.586 124.493 378.781 124.391 378.948Z" stroke="black" stroke-linecap="round" stroke-linejoin="round"/>
<path d="M131.601 384.024C131.5 384.19 131.355 384.321 131.184 384.399C131.014 384.477 130.825 384.499 130.643 384.462C130.461 384.426 130.293 384.332 130.16 384.192C130.028 384.053 129.937 383.875 129.899 383.68C129.861 383.485 129.877 383.283 129.947 383.098C130.016 382.914 130.135 382.755 130.288 382.643C130.441 382.531 130.622 382.47 130.807 382.468C130.993 382.466 131.174 382.524 131.33 382.633C131.537 382.778 131.683 383.007 131.734 383.268C131.785 383.529 131.737 383.8 131.601 384.024Z" stroke="black" stroke-linecap="round" stroke-linejoin="round"/>
<path d="M105.819 375.451C105.717 375.62 105.57 375.752 105.398 375.831C105.226 375.91 105.036 375.933 104.851 375.896C104.667 375.858 104.497 375.763 104.364 375.623C104.23 375.482 104.138 375.302 104.1 375.105C104.062 374.908 104.079 374.703 104.149 374.517C104.22 374.331 104.34 374.171 104.495 374.058C104.65 373.945 104.833 373.884 105.02 373.883C105.208 373.882 105.391 373.94 105.548 374.051C105.756 374.199 105.902 374.429 105.952 374.691C106.003 374.954 105.955 375.227 105.819 375.451Z" stroke="black" stroke-linecap="round" stroke-linejoin="round"/>
<path d="M113.065 380.527C112.963 380.696 112.817 380.828 112.644 380.907C112.472 380.986 112.282 381.008 112.097 380.971C111.913 380.934 111.744 380.839 111.61 380.698C111.476 380.558 111.384 380.377 111.346 380.18C111.308 379.984 111.325 379.779 111.395 379.593C111.466 379.406 111.586 379.246 111.741 379.134C111.896 379.021 112.079 378.96 112.266 378.959C112.454 378.957 112.637 379.016 112.794 379.127C113 379.276 113.144 379.506 113.195 379.768C113.246 380.029 113.199 380.302 113.065 380.527Z" stroke="black" stroke-linecap="round" stroke-linejoin="round"/>
<path d="M120.308 385.603C120.207 385.772 120.061 385.905 119.889 385.985C119.717 386.065 119.527 386.088 119.343 386.052C119.159 386.016 118.989 385.923 118.854 385.783C118.72 385.643 118.627 385.463 118.587 385.267C118.548 385.07 118.564 384.866 118.633 384.679C118.702 384.492 118.822 384.332 118.976 384.218C119.13 384.104 119.312 384.041 119.5 384.039C119.687 384.036 119.871 384.093 120.028 384.202C120.238 384.349 120.385 384.578 120.437 384.841C120.49 385.103 120.444 385.377 120.308 385.603Z" stroke="black" stroke-linecap="round" stroke-linejoin="round"/>
<path d="M127.544 390.679C127.478 390.79 127.391 390.886 127.289 390.961C127.188 391.036 127.073 391.089 126.953 391.116C126.832 391.143 126.708 391.144 126.587 391.119C126.465 391.094 126.35 391.043 126.248 390.97C126.14 390.9 126.046 390.808 125.972 390.698C125.898 390.589 125.845 390.464 125.817 390.333C125.789 390.201 125.785 390.064 125.808 389.931C125.83 389.798 125.877 389.671 125.946 389.558C126.015 389.444 126.104 389.347 126.209 389.272C126.314 389.197 126.432 389.145 126.556 389.12C126.679 389.094 126.807 389.096 126.93 389.125C127.053 389.154 127.17 389.209 127.273 389.287C127.376 389.359 127.466 389.452 127.536 389.561C127.606 389.67 127.655 389.792 127.68 389.922C127.705 390.051 127.706 390.185 127.683 390.315C127.66 390.445 127.612 390.568 127.544 390.679Z" stroke="black" stroke-linecap="round" stroke-linejoin="round"/>
</g>
<g opacity="0.3">
<path d="M79.9961 171.7L94.564 164.181L108.37 194.936C112.384 203.886 112.921 214.179 109.864 223.554C106.807 232.929 100.406 240.618 92.0674 244.931C83.7262 249.238 74.1327 249.815 65.3954 246.534C56.6582 243.254 49.4923 236.386 45.4729 227.439L40.8477 217.099" stroke="black" stroke-linecap="round" stroke-linejoin="round"/>
<path d="M39.4819 214.073L31.668 196.675L76.5893 173.458" stroke="black" stroke-linecap="round" stroke-linejoin="round"/>
<path d="M120.013 212.023C117.402 213.104 114.585 213.488 111.805 213.142" stroke="black" stroke-linecap="round" stroke-linejoin="round"/>
<path d="M99.707 175.629C100.941 174.416 102.334 173.402 103.842 172.621C113.057 167.856 124.445 172.678 129.246 183.402C133.267 192.369 131.418 202.634 125.295 208.527" stroke="black" stroke-linecap="round" stroke-linejoin="round"/>
<path d="M103.43 183.919C104.432 182.411 105.773 181.199 107.328 180.395C112.855 177.575 119.671 180.395 122.562 186.861C125.452 193.328 123.297 200.81 117.77 203.658C115.755 204.705 113.48 205.034 111.279 204.598" stroke="black" stroke-linecap="round" stroke-linejoin="round"/>
<path d="M49.6602 209.317C57.5442 210.369 55.8973 215.342 49.1434 210.905C48.171 219.365 43.5282 217.597 47.6629 210.351C39.7789 209.307 41.4258 204.326 48.1798 208.762C49.1609 200.331 53.7949 202.117 49.6602 209.317Z" stroke="black" stroke-linecap="round" stroke-linejoin="round"/>
<path d="M61.4951 203.207C69.3791 204.25 67.7235 209.232 60.9695 204.795C59.9972 213.255 55.3544 211.488 59.4891 204.241C51.6051 203.188 53.2607 198.206 60.0147 202.652C60.9871 194.212 65.6299 195.96 61.4951 203.207Z" stroke="black" stroke-linecap="round" stroke-linejoin="round"/>
<path d="M73.3223 197.088C81.2063 198.14 79.5594 203.122 72.8055 198.676C71.8244 207.136 67.1903 205.369 71.325 198.122C63.441 197.078 65.0879 192.097 71.8419 196.533C72.8142 188.102 77.457 189.841 73.3223 197.088Z" stroke="black" stroke-linecap="round" stroke-linejoin="round"/>
<path d="M85.1572 190.978C93.0412 192.031 91.3856 197.003 84.6316 192.567C83.6593 201.026 79.0165 199.259 83.1512 192.012C75.2672 190.969 76.9141 185.987 83.668 190.424C84.6492 181.993 89.292 183.731 85.1572 190.978Z" stroke="black" stroke-linecap="round" stroke-linejoin="round"/>
<path d="M96.9825 184.869C104.866 185.912 103.22 190.894 96.4656 186.457C95.4845 194.917 90.8417 193.15 94.9852 185.903C87.1012 184.85 88.7481 179.868 95.502 184.314C96.4744 175.874 101.117 177.622 96.9825 184.869Z" stroke="black" stroke-linecap="round" stroke-linejoin="round"/>
<path d="M34.1647 125.164C31.5 125.702 28.8957 126.54 26.3945 127.664" stroke="black" stroke-linecap="round" stroke-linejoin="round"/>
<path d="M47.165 184.257C47.165 184.257 42.6974 181.851 51.9567 168.833C61.216 155.815 62.8191 140.043 53.8752 130.098C49.8543 125.633 44.4669 124.458 39.5 124.562" stroke="black" stroke-linecap="round" stroke-linejoin="round"/>
<path d="M68.521 149.188C65.017 157.394 58.9901 164.594 59.945 169.482C61.2239 175.986 72.0863 173.589 72.0863 173.589" stroke="black" stroke-linecap="round" stroke-linejoin="round"/>
<path d="M60.584 123.208C60.584 123.208 71.7617 129.036 70.8069 140.691C70.7055 141.827 70.5209 142.952 70.255 144.056" stroke="black" stroke-linecap="round" stroke-linejoin="round"/>
</g>
<g opacity="0.3">
<path d="M129.788 14.8522C129.788 14.8522 123.516 5.33058 109.763 7.95302C96.0098 10.5755 92.0678 28.5189 92.0678 28.5189C92.0678 28.5189 83.08 25.0976 74.5478 34.2338C63.9482 45.5695 69.0378 54.7997 69.0378 54.7997C69.0378 54.7997 54.829 59.0012 52.8756 73.7207C50.9221 88.4402 55.3196 100.528 72.9535 104.212C90.5874 107.897 96.9646 105.303 96.9646 105.303" stroke="black" stroke-linecap="round" stroke-linejoin="round"/>
<path d="M134.686 20.1064C134.686 20.1064 146.441 32.7205 146.95 47.9663C147.458 63.2122 145.478 67.9401 145.478 67.9401" stroke="black" stroke-linecap="round" stroke-linejoin="round"/>
<path d="M101.861 101.054C104.241 92.5383 108.899 84.9599 115.258 79.2601C121.616 73.5603 129.395 69.99 137.628 68.9927" stroke="black" stroke-linecap="round" stroke-linejoin="round"/>
<path d="M101.861 106.318L123.42 135.747C123.42 135.747 126.6 118.829 161.088 100.396L145.95 74.7734" stroke="black" stroke-linecap="round" stroke-linejoin="round"/>
<path d="M124.996 136.406C124.996 136.406 128.421 135.466 137.383 130.766C148.823 124.788 164.67 105.735 162.971 101.863" stroke="black" stroke-linecap="round" stroke-linejoin="round"/>
<path d="M67.8902 70.2053C67.8902 70.2053 65.744 56.1062 76.4663 53.1172" stroke="black" stroke-linecap="round" stroke-linejoin="round"/>
<path d="M88.0996 36.3676C88.0996 36.3676 90.5524 25.8497 103.105 26.5077" stroke="black" stroke-linecap="round" stroke-linejoin="round"/>
</g>
<path d="M203.021 75.6382L208.698 53.0796C208.698 53.0796 221.198 58.5595 226.314 60.3923C230.051 61.6491 233.853 62.666 237.702 63.4377L232.026 85.9963L203.021 75.6382Z" fill="white" stroke="#263238" stroke-linecap="round" stroke-linejoin="round"/>
<path d="M247.908 90.8844L249.038 70.7603L270.062 75.037V101.252L247.908 90.8844Z" fill="white" stroke="#263238" stroke-linecap="round" stroke-linejoin="round"/>
<path d="M260.398 104.908L267.792 77.4712L294.492 89.0513L283.7 109.175L260.398 104.908Z" fill="white" stroke="#263238" stroke-linecap="round" stroke-linejoin="round"/>
<path d="M95.0447 319.873L265.865 409.017C266.22 409.207 266.61 409.308 267.007 409.313C267.403 409.318 267.796 409.227 268.155 409.046C268.514 408.865 268.83 408.599 269.08 408.269C269.329 407.938 269.506 407.551 269.596 407.137L281.195 353.447L95.1586 319.45C95.1109 319.447 95.0636 319.461 95.0246 319.49C94.9856 319.52 94.9571 319.563 94.9438 319.612C94.9305 319.661 94.9333 319.714 94.9517 319.761C94.97 319.809 95.0028 319.848 95.0447 319.873Z" fill="#263238"/>
<path d="M98.7249 321.254L267.469 402.324L273.539 374.023L98.8475 320.841C98.7964 320.823 98.7409 320.828 98.6933 320.855C98.6457 320.881 98.6098 320.927 98.5935 320.982C98.5772 321.037 98.5819 321.096 98.6066 321.147C98.6312 321.198 98.6738 321.237 98.7249 321.254Z" fill="white" stroke="#263238" stroke-linecap="round" stroke-linejoin="round"/>
<path d="M100.206 321.725L268.161 399.57L273.54 374.023L100.337 321.302C100.288 321.293 100.237 321.303 100.194 321.331C100.151 321.358 100.118 321.402 100.103 321.453C100.087 321.504 100.088 321.559 100.107 321.609C100.126 321.659 100.161 321.7 100.206 321.725Z" fill="white" stroke="#263238" stroke-linecap="round" stroke-linejoin="round"/>
<path d="M93.1797 319.055L268.862 396.807L274.056 371.673L93.1797 319.055Z" fill="white" stroke="#263238" stroke-linecap="round" stroke-linejoin="round"/>
<path d="M100.52 321.424L283.447 379.221L285.304 368.59L100.625 320.991C100.575 320.985 100.524 320.998 100.482 321.029C100.44 321.06 100.41 321.106 100.397 321.158C100.385 321.211 100.39 321.267 100.413 321.316C100.435 321.364 100.473 321.403 100.52 321.424Z" fill="white" stroke="#263238" stroke-linecap="round" stroke-linejoin="round"/>
<path d="M100.591 321.339L285.243 377.256L287.1 366.607L100.687 320.898C100.633 320.884 100.575 320.894 100.528 320.926C100.48 320.957 100.446 321.008 100.433 321.067C100.421 321.125 100.43 321.187 100.46 321.238C100.489 321.289 100.536 321.326 100.591 321.339Z" fill="white" stroke="#263238" stroke-linecap="round" stroke-linejoin="round"/>
<path d="M100.652 321.273L286.959 375.517L288.808 364.887L100.739 320.841C100.691 320.84 100.643 320.857 100.605 320.89C100.567 320.922 100.541 320.968 100.53 321.018C100.52 321.069 100.526 321.123 100.548 321.169C100.571 321.216 100.607 321.252 100.652 321.273Z" fill="white" stroke="#263238" stroke-linecap="round" stroke-linejoin="round"/>
<path d="M292.584 368.167C292.295 369.385 291.567 370.431 290.561 371.074C289.554 371.717 288.35 371.906 287.214 371.598L93.3818 319.112C93.3553 319.103 93.3307 319.089 93.3093 319.07C93.2879 319.051 93.2702 319.028 93.2572 319.002C93.2441 318.976 93.2361 318.947 93.2334 318.917C93.2307 318.888 93.2335 318.858 93.2416 318.83L166.212 52.5347L348.166 115.642C349.227 116.013 350.118 116.801 350.66 117.846C351.203 118.892 351.357 120.119 351.092 121.282L292.584 368.167Z" fill="#02D084" stroke="#263238" stroke-linecap="round" stroke-linejoin="round"/>
<path d="M106.494 322.711L93.3545 319.111C93.328 319.103 93.3033 319.089 93.2819 319.07C93.2605 319.051 93.2428 319.028 93.2298 319.002C93.2168 318.976 93.2087 318.947 93.2061 318.917C93.2034 318.888 93.2062 318.858 93.2143 318.83L166.185 52.5347L179.702 56.2944L106.74 322.561C106.725 322.616 106.692 322.662 106.646 322.69C106.6 322.718 106.546 322.726 106.494 322.711Z" fill="#263238" stroke="#263238" stroke-linecap="round" stroke-linejoin="round"/>
<path d="M195.82 192.031C195.82 192.031 189.408 176.795 178.222 171.033C167.035 165.271 167.333 176.673 174.718 181.372C182.102 186.072 192.772 187.961 195.82 192.031Z" fill="#263238"/>
<path d="M277.061 263.213C277.061 263.213 279.995 265.271 283 275.169C286.005 285.067 284.156 297.088 289.535 299.608C294.913 302.127 299.749 299.514 296.727 287.012C293.705 274.511 281.922 262.602 277.061 263.213Z" fill="#263238"/>
<path d="M183.705 254.387C183.705 254.387 180.201 254.678 173.15 261.813C166.098 268.947 162.314 280.442 156.453 279.916C150.593 279.389 147.535 274.558 155.787 265.149C164.039 255.741 179.702 251.389 183.705 254.387Z" fill="#263238"/>
<path d="M282.728 188.582C282.728 188.582 283.412 185.423 289.964 179.897C296.517 174.37 306.126 172.377 306.459 167.01C306.792 161.643 303.367 158.184 294.852 164.5C286.337 170.817 280.862 184.54 282.728 188.582Z" fill="#263238"/>
<path d="M216.424 323.567C211.496 326.734 205.622 327.745 200.018 326.389C194.415 325.033 189.513 321.415 186.329 316.285C183.145 311.155 181.923 304.907 182.918 298.837C183.912 292.766 187.046 287.339 191.67 283.682C196.293 280.024 202.051 278.417 207.75 279.193C213.448 279.969 218.65 283.068 222.275 287.849C225.901 292.63 227.673 298.724 227.222 304.869C226.772 311.013 224.135 316.736 219.858 320.85" stroke="#263238" stroke-linecap="round" stroke-linejoin="round"/>
<path d="M214.444 285.913C214.068 290.613 205.798 299.777 205.798 299.777C205.798 299.777 202.487 285.067 204.493 282.228C205.833 280.348 210.975 280.715 213.297 283.008" stroke="#263238" stroke-linecap="round" stroke-linejoin="round"/>
<path d="M203.145 300.162C203.145 300.162 190.364 293.771 189.549 290.312C188.822 287.238 195.252 281.025 198.44 284.268C201.629 287.511 203.145 300.162 203.145 300.162Z" stroke="#263238" stroke-linecap="round" stroke-linejoin="round"/>
<path d="M195.899 299.279C199.097 300.886 201.777 302.625 201.777 302.625C201.777 302.625 189.154 309.364 186.123 307.898C183.425 306.591 182.908 297.324 187.262 296.619C188.681 296.402 190.766 296.976 192.842 297.831" stroke="#263238" stroke-linecap="round" stroke-linejoin="round"/>
<path d="M202.714 305.313C202.714 305.313 199.753 320.108 196.792 321.734C194.164 323.181 187.086 317.833 189.32 313.782C191.554 309.731 202.714 305.313 202.714 305.313Z" stroke="#263238" stroke-linecap="round" stroke-linejoin="round"/>
<path d="M205.265 306.197C205.265 306.197 214.191 317.908 213.534 321.405C212.947 324.526 204.634 327.12 203.075 322.712C201.516 318.303 205.265 306.197 205.265 306.197Z" stroke="#263238" stroke-linecap="round" stroke-linejoin="round"/>
<path d="M207.488 304.617C207.488 304.617 221.592 304.42 223.729 307.165C225.63 309.599 222.345 318.181 218.167 316.752C213.988 315.323 207.488 304.617 207.488 304.617Z" stroke="#263238" stroke-linecap="round" stroke-linejoin="round"/>
<path d="M207.734 301.751C207.734 301.751 216.38 289.804 219.709 289.719C222.67 289.635 226.875 297.746 223.213 300.36C219.552 302.973 207.734 301.751 207.734 301.751Z" stroke="#263238" stroke-linecap="round" stroke-linejoin="round"/>
<path d="M195.347 100.425C194.677 101.426 194.09 102.489 193.595 103.602C191.643 108.062 191.288 113.137 192.596 117.861C193.332 120.568 194.953 123.341 194.637 126.254C194.269 129.638 192.167 132.242 192.106 135.879C192.001 142.525 198.702 150.392 205.92 153.644C212.175 156.464 219.542 156.464 224.754 155.289" stroke="#263238" stroke-linecap="round" stroke-linejoin="round"/>
<path d="M230.387 153.24C236.318 150.42 240.321 145.946 239.971 137.975C239.813 134.338 238.359 128.877 240.628 125.756C243.256 121.996 249.213 118.236 248.161 107.822C247.11 97.4073 232.481 89.2299 224.142 88.2147C216.573 87.2748 214.339 89.9066 211.107 91.0345C206.315 92.7264 201.996 93.9672 198.51 96.881" stroke="#263238" stroke-linecap="round" stroke-linejoin="round"/>
<path d="M216.815 134.124C223.909 132.781 228.645 125.521 227.393 117.909C226.141 110.297 219.375 105.215 212.281 106.559C205.186 107.903 200.451 115.162 201.703 122.774C202.955 130.386 209.721 135.468 216.815 134.124Z" stroke="#263238" stroke-linecap="round" stroke-linejoin="round"/>
<path d="M223.047 112.202C224.409 113.846 225.332 115.854 225.719 118.014C226.105 120.174 225.942 122.406 225.245 124.475C224.548 126.543 223.343 128.372 221.758 129.767C220.173 131.162 218.267 132.072 216.24 132.401" stroke="#263238" stroke-linecap="round" stroke-linejoin="round"/>
<path d="M210.239 131.621C208.128 130.694 206.326 129.105 205.07 127.062" stroke="#263238" stroke-linecap="round" stroke-linejoin="round"/>
<path d="M326.133 166.108C326.133 166.108 318.468 167.659 314.859 165.976" stroke="#263238" stroke-linecap="round" stroke-linejoin="round"/>
<path d="M327.623 180.311C324.965 181.673 321.957 182.037 319.082 181.344" stroke="#263238" stroke-linecap="round" stroke-linejoin="round"/>
<path d="M315.711 200.914C315.711 200.914 316.727 203.029 321.414 201.111" stroke="#263238" stroke-linecap="round" stroke-linejoin="round"/>
<path d="M321.054 189.954C319.046 190.035 317.038 189.791 315.098 189.23" stroke="#263238" stroke-linecap="round" stroke-linejoin="round"/>
<path d="M324.33 201.741C326.204 198.479 328.219 195.725 329.262 191.984C330.392 187.952 330.777 183.685 332.468 179.84C334.815 174.483 335.096 171.87 334.64 166.089C334.421 163.269 335.516 160.271 334.22 157.629C332.704 154.462 329.297 148.653 322.735 148.597C316.174 148.54 310.901 153.785 310.568 157.639C310.235 161.493 312.372 165.328 312.153 167.461C311.934 169.595 310.331 171.465 310.401 174.125C310.471 181.137 311.593 186.993 310.34 194.118C309.816 197.466 309.105 200.778 308.211 204.034C307.038 208.001 306.547 212.936 310.086 215.727C312.915 217.955 317.62 213.368 319.24 211.385C321.456 208.668 322.324 205.397 323.988 202.418L324.33 201.741Z" stroke="#263238" stroke-linecap="round" stroke-linejoin="round"/>
<path d="M322.735 148.606C322.735 148.606 323.059 144.085 324.531 142.6C326.002 141.115 331.328 141.19 335.043 137.825C338.757 134.46 337.977 133.539 335.253 134.376C332.528 135.212 338.336 133.003 339.633 127.937C340.929 122.871 336.392 125.719 332.958 129.61C329.524 133.501 327.544 132.599 327.903 131.405C328.262 130.212 331.407 124.45 330.391 120.342C329.375 116.235 324.837 119.177 323.821 124.854C322.805 130.531 323.392 138.897 321.754 136.133C320.116 133.37 322.927 129.76 321.07 117.278C319.213 104.796 312.547 105.801 312.451 110.191C312.354 114.58 316.498 118.65 313.773 118.152C311.049 117.654 303.839 115.614 304.4 121.987C304.961 128.36 310.839 122.438 313.116 126.536C315.394 130.635 319.599 130.973 319.248 136.161C318.898 141.35 315.744 136.735 312.687 136.772C309.63 136.81 307.641 139.884 311.759 143.296C315.876 146.708 318.057 141.491 319.818 143.86C320.84 145.103 321.456 146.671 321.57 148.324L322.735 148.606Z" stroke="#263238" stroke-linecap="round" stroke-linejoin="round"/>
<path d="M241.575 320.465L243.738 346.736C243.788 347.383 243.963 348.011 244.25 348.581C244.537 349.152 244.932 349.652 245.408 350.051C245.884 350.451 246.433 350.739 247.018 350.9C247.604 351.061 248.214 351.09 248.81 350.985L287.573 344.481C288.159 344.385 288.721 344.163 289.225 343.827C289.729 343.492 290.164 343.05 290.503 342.529C290.843 342.008 291.081 341.418 291.202 340.795C291.324 340.173 291.326 339.53 291.209 338.907L284.017 299.138C283.803 297.958 283.177 296.911 282.266 296.212C281.355 295.513 280.229 295.214 279.12 295.378L276.65 295.726M274.022 296.092L266.076 297.202C265.699 297.268 265.311 297.183 264.988 296.963C264.665 296.743 264.429 296.403 264.324 296.008L263.843 294.222C263.769 293.94 263.764 293.642 263.829 293.357C263.893 293.073 264.024 292.81 264.21 292.596L264.508 292.257C265.035 291.663 265.425 290.944 265.649 290.16C265.872 289.375 265.923 288.545 265.796 287.736C265.581 286.378 264.88 285.163 263.843 284.35C262.805 283.538 261.514 283.191 260.242 283.384L257.045 283.864C256.356 283.968 255.695 284.228 255.106 284.625C254.517 285.023 254.013 285.55 253.626 286.171C253.24 286.792 252.981 287.494 252.865 288.23C252.749 288.966 252.779 289.721 252.954 290.443L253.068 290.895C253.259 291.687 253.618 292.421 254.118 293.039C254.618 293.657 255.245 294.143 255.95 294.457L257.702 295.228C257.947 295.339 258.162 295.514 258.327 295.737C258.492 295.96 258.603 296.225 258.648 296.506C258.683 296.729 258.675 296.957 258.626 297.176C258.577 297.396 258.487 297.602 258.362 297.784C258.237 297.965 258.079 298.118 257.898 298.233C257.717 298.348 257.516 298.422 257.308 298.452L244.124 300.332C242.994 300.483 241.963 301.1 241.25 302.053C240.537 303.006 240.198 304.219 240.304 305.435L241.364 318.247M259.173 291.712C258.803 291.611 258.468 291.393 258.213 291.088C257.957 290.782 257.791 290.402 257.737 289.996C257.682 289.59 257.741 289.175 257.906 288.805C258.071 288.434 258.334 288.124 258.663 287.914C258.992 287.704 259.372 287.604 259.754 287.625C260.136 287.647 260.504 287.789 260.81 288.035C261.117 288.28 261.349 288.617 261.477 289.004C261.605 289.391 261.624 289.81 261.53 290.208C261.387 290.722 261.065 291.157 260.631 291.423C260.197 291.689 259.685 291.766 259.2 291.637L259.173 291.712Z" stroke="#263238" stroke-linecap="round" stroke-linejoin="round"/>
<path d="M278.506 338.728L283.762 337.788C284.091 337.727 284.405 337.594 284.686 337.399C284.966 337.204 285.207 336.95 285.394 336.652C285.58 336.354 285.709 336.019 285.772 335.667C285.834 335.315 285.83 334.952 285.759 334.602L279.093 301.939C278.957 301.278 278.592 300.697 278.07 300.316C277.549 299.936 276.912 299.783 276.289 299.89L247.215 304.853C246.583 304.957 246.015 305.322 245.63 305.87C245.246 306.418 245.076 307.105 245.156 307.785L248.923 341.322C248.962 341.679 249.069 342.023 249.236 342.334C249.403 342.645 249.628 342.916 249.896 343.13C250.164 343.345 250.47 343.499 250.795 343.582C251.12 343.666 251.458 343.677 251.788 343.616L275.878 339.208" stroke="#263238" stroke-linecap="round" stroke-linejoin="round"/>
<path d="M143.296 304.213C137.751 305.294 132.346 306.92 130.708 311.178C127.423 319.685 137.418 322.458 146.327 321.856C155.236 321.255 162.656 309.872 165.047 302.456C166.727 297.913 168.872 293.585 171.442 289.55" stroke="#263238" stroke-linecap="round" stroke-linejoin="round"/>
<path d="M173.964 285.631C176.493 281.72 179.482 278.175 182.855 275.085C189.513 269.52 200.831 271.955 205.719 267.246C210.607 262.536 202.162 257.198 188.593 262.875C182.784 265.53 177.886 270.056 174.577 275.827C168.787 285.659 161.227 296.355 156.786 300.51C155.034 302.146 151.197 302.822 146.939 303.565" stroke="#263238" stroke-linecap="round" stroke-linejoin="round"/>
<path d="M152.862 310.906C151.446 311.623 149.982 312.223 148.482 312.701C137.97 316.198 132.425 315.69 133.029 313.162C133.634 310.633 138.495 308.622 138.495 308.622" stroke="#263238" stroke-linecap="round" stroke-linejoin="round"/>
<path d="M159.011 304.157C159.011 304.157 159.011 306.15 156.383 308.5" stroke="#263238" stroke-linecap="round" stroke-linejoin="round"/>
<path d="M286.793 117.738C285.302 112.948 282.722 108.632 279.286 105.181C277.49 103.321 275.359 101.875 273.022 100.932C266.067 98.4227 258.13 103.461 256.264 110.153C254.398 116.846 256.221 131.462 256.221 131.462C256.221 131.462 250.089 128.886 248.582 134.169C247.075 139.451 253.146 142.027 254.845 143.098C256.545 144.17 258.831 147.497 258.831 147.497C258.831 147.497 261.547 162.48 263.141 164.256C264.735 166.033 291.926 152.093 294.221 149.415C295.982 147.365 289.798 127.119 286.793 117.738Z" stroke="#263238" stroke-linecap="round" stroke-linejoin="round"/>
<path d="M277.955 154.18L293.854 145.814" stroke="#263238" stroke-linecap="round" stroke-linejoin="round"/>
<path d="M263.158 161.963L273.416 156.567" stroke="#263238" stroke-linecap="round" stroke-linejoin="round"/>
<path d="M267.967 102.389C267.967 102.389 266.496 130.785 261.625 148.334" stroke="#263238" stroke-linecap="round" stroke-linejoin="round"/>
<path d="M270.894 103.743C270.894 103.743 270.316 129.817 264.105 150.119" stroke="#263238" stroke-linecap="round" stroke-linejoin="round"/>
<path d="M273.399 136.716C272.329 141.829 270.762 146.806 268.721 151.567" stroke="#263238" stroke-linecap="round" stroke-linejoin="round"/>
<path d="M277.901 108.781C277.009 117.234 275.711 125.633 274.012 133.943" stroke="#263238" stroke-linecap="round" stroke-linejoin="round"/>
<path d="M281.932 113.377C281.932 113.377 279.453 135.259 271.762 153.136" stroke="#263238" stroke-linecap="round" stroke-linejoin="round"/>
<path d="M286.049 124.779C286.049 124.779 283.254 137.938 278.699 148.437" stroke="#263238" stroke-linecap="round" stroke-linejoin="round"/>
<path d="M260.627 136.875C260.312 138.295 259.979 139.695 259.611 141.002" stroke="#263238" stroke-linecap="round" stroke-linejoin="round"/>
<path d="M264.665 104.777C264.112 114.45 262.988 124.075 261.301 133.595" stroke="#263238" stroke-linecap="round" stroke-linejoin="round"/>
<path d="M272.838 112.136C277.185 114.274 281.17 117.174 284.629 120.718" stroke="#263238" stroke-linecap="round" stroke-linejoin="round"/>
<path d="M262.475 108.95C265.718 109.328 268.887 110.248 271.865 111.676" stroke="#263238" stroke-linecap="round" stroke-linejoin="round"/>
<path d="M261.854 112.992C261.854 112.992 279.146 117.193 288.195 130.136" stroke="#263238" stroke-linecap="round" stroke-linejoin="round"/>
<path d="M259.971 118.716C259.971 118.716 271.105 118.65 289.325 136.866" stroke="#263238" stroke-linecap="round" stroke-linejoin="round"/>
<path d="M286.986 140.908C287.264 141.237 287.524 141.583 287.766 141.942" stroke="#263238" stroke-linecap="round" stroke-linejoin="round"/>
<path d="M272.734 129.008C272.734 129.008 280.907 134.648 285.498 139.282" stroke="#263238" stroke-linecap="round" stroke-linejoin="round"/>
<path d="M264.105 134.347C264.105 134.347 277.692 139.902 282.072 147.337" stroke="#263238" stroke-linecap="round" stroke-linejoin="round"/>
<path d="M238.272 262.997C238.272 262.997 232.797 259.529 229.25 265.601C225.702 271.673 228.619 279.239 231.878 282.106C235.136 284.973 237.423 283.046 237.423 283.046C237.423 283.046 240.366 287.238 243.152 286.589C245.937 285.941 252.385 279.822 252.849 273.43C253.313 267.039 243.826 263.909 243.826 263.909" stroke="#263238" stroke-linecap="round" stroke-linejoin="round"/>
<path d="M239.734 265.657C239.734 265.657 239.796 264.266 240.181 261.559C240.567 258.852 240.943 257.254 242.424 257.658C243.904 258.062 243.203 262.104 241.548 265.873" stroke="#263238" stroke-linecap="round" stroke-linejoin="round"/>
<path d="M234.768 264.068C235.339 264.609 235.861 265.207 236.327 265.854C237.087 265.737 237.863 265.851 238.566 266.184C239.269 266.516 239.871 267.053 240.304 267.734C241.027 267.175 241.89 266.86 242.781 266.829C243.672 266.799 244.551 267.055 245.306 267.565" stroke="#263238" stroke-linecap="round" stroke-linejoin="round"/>
<path d="M239.656 269.962C239.656 269.962 238.579 278.28 237.904 281.1" stroke="#263238" stroke-linecap="round" stroke-linejoin="round"/>
<path d="M234.339 266.184C234.339 266.184 230.572 268.345 230.66 276.692" stroke="#263238" stroke-linecap="round" stroke-linejoin="round"/>
<path d="M246.654 268.984C246.654 268.984 249.957 269.501 247.487 277.246C245.016 284.992 243.439 285.133 243.439 285.133" stroke="#263238" stroke-linecap="round" stroke-linejoin="round"/>
<path d="M185.966 151.981C185.966 151.981 181.534 149.161 178.652 154.077C175.77 158.993 178.144 165.131 180.781 167.462C183.417 169.793 185.283 168.232 185.283 168.232C185.283 168.232 187.666 171.635 189.917 171.109C192.169 170.582 197.398 165.629 197.801 160.478C198.204 155.327 190.495 152.761 190.495 152.761" stroke="#263238" stroke-linecap="round" stroke-linejoin="round"/>
<path d="M187.156 154.18C187.156 154.18 187.209 153.052 187.524 150.853C187.84 148.653 188.137 147.366 189.337 147.695C190.538 148.024 189.968 151.294 188.602 154.349" stroke="#263238" stroke-linecap="round" stroke-linejoin="round"/>
<path d="M183.084 152.845C183.549 153.28 183.974 153.762 184.354 154.283C184.968 154.19 185.594 154.282 186.162 154.55C186.73 154.817 187.217 155.249 187.569 155.797C188.156 155.344 188.855 155.089 189.577 155.064C190.299 155.039 191.012 155.245 191.625 155.656" stroke="#263238" stroke-linecap="round" stroke-linejoin="round"/>
<path d="M187.095 157.62C187.095 157.62 186.219 164.359 185.676 166.644" stroke="#263238" stroke-linecap="round" stroke-linejoin="round"/>
<path d="M182.786 154.556C182.786 154.556 179.738 156.304 179.808 163.072" stroke="#263238" stroke-linecap="round" stroke-linejoin="round"/>
<path d="M192.773 156.821C192.773 156.821 195.444 157.244 193.438 163.523C191.432 169.802 190.162 169.915 190.162 169.915" stroke="#263238" stroke-linecap="round" stroke-linejoin="round"/>
<path d="M177.03 139.677C173.579 140.758 170.312 139.912 169.742 137.797C169.173 135.682 171.494 133.097 174.954 132.007C178.415 130.916 181.673 131.772 182.243 133.887C182.812 136.002 180.456 138.596 177.03 139.677Z" stroke="#263238" stroke-linecap="round" stroke-linejoin="round"/>
<path d="M181.656 116.112C181.191 118.067 179.904 119.392 178.712 119.073C177.521 118.753 176.96 116.911 177.451 114.956C177.941 113.001 179.203 111.666 180.403 111.986C181.603 112.305 182.129 114.148 181.656 116.112Z" stroke="#263238" stroke-linecap="round" stroke-linejoin="round"/>
<path d="M294.257 195.453C293.793 197.417 292.505 198.743 291.314 198.423C290.123 198.103 289.562 196.261 290.052 194.297C290.543 192.332 291.804 191.016 293.005 191.336C294.205 191.655 294.73 193.498 294.257 195.453Z" stroke="#263238" stroke-linecap="round" stroke-linejoin="round"/>
<path d="M174.797 320.597C174.332 322.561 173.045 323.887 171.845 323.567C170.644 323.247 170.093 321.405 170.592 319.45C171.091 317.495 172.344 316.16 173.535 316.48C174.727 316.799 175.261 318.67 174.797 320.597Z" stroke="#263238" stroke-linecap="round" stroke-linejoin="round"/>
<path d="M272.804 271.973C272.34 273.938 271.052 275.263 269.861 274.944C268.669 274.624 268.109 272.782 268.599 270.817C269.09 268.853 270.351 267.537 271.551 267.856C272.752 268.176 273.312 270.018 272.804 271.973Z" stroke="#263238" stroke-linecap="round" stroke-linejoin="round"/>
<path d="M188.139 91.6174C187.911 92.5573 189.129 93.7792 190.872 94.2586C192.615 94.738 194.218 94.3338 194.446 93.3187C194.674 92.3035 193.465 91.1568 191.722 90.6774C189.978 90.1981 188.34 90.6398 188.139 91.6174Z" stroke="#263238" stroke-linecap="round" stroke-linejoin="round"/>
<path d="M305.725 223.162C305.488 224.102 306.714 225.324 308.458 225.794C310.201 226.264 311.795 225.869 312.032 224.854C312.268 223.839 311.042 222.692 309.299 222.213C307.555 221.733 305.97 222.185 305.725 223.162Z" stroke="#263238" stroke-linecap="round" stroke-linejoin="round"/>
<path d="M153.475 234.912C153.247 235.852 154.465 237.064 156.208 237.544C157.951 238.023 159.554 237.619 159.782 236.604C160.01 235.588 158.792 234.442 157.057 233.962C155.323 233.483 153.711 233.925 153.475 234.912Z" stroke="#263238" stroke-linecap="round" stroke-linejoin="round"/>
</svg>
