<svg width="1112" height="1030" viewBox="0 0 1112 1030" fill="none" xmlns="http://www.w3.org/2000/svg">
<path d="M823.288 353.546C804.491 327.686 781.182 305.535 754.329 288.014C714.262 262.327 667.594 246.894 619.057 240.975C477.177 223.612 433.242 390.895 384.932 409.503C336.623 428.11 256.841 422.155 235.694 515.571C222.393 574.326 224.18 636.471 253.445 686.597C280.312 732.519 327.726 759.523 375.463 780.866C429.077 804.846 486.222 828.858 548.615 823.538C612.655 818.069 665.624 773.605 722.781 745.91C758.765 728.471 791.704 709.572 817.974 678.147C821.109 674.383 824.133 670.534 827.046 666.6C863.638 617.272 880.644 557.593 877.223 499.469C874.175 447.273 854.235 395.731 823.288 353.546Z" fill="#02D084"/>
<path opacity="0.7" d="M823.288 353.546C804.491 327.686 781.182 305.535 754.329 288.014C714.262 262.327 667.594 246.894 619.057 240.975C477.177 223.612 433.242 390.895 384.932 409.503C336.623 428.11 256.841 422.155 235.694 515.571C222.393 574.326 224.18 636.471 253.445 686.597C280.312 732.519 327.726 759.523 375.463 780.866C429.077 804.846 486.222 828.858 548.615 823.538C612.655 818.069 665.624 773.605 722.781 745.91C758.765 728.471 791.704 709.572 817.974 678.147C821.109 674.383 824.133 670.534 827.046 666.6C863.638 617.272 880.644 557.593 877.223 499.469C874.175 447.273 854.236 395.731 823.288 353.546Z" fill="white"/>
<g opacity="0.3">
<path d="M778.412 283.705C776.419 310.115 774.948 348.759 778.258 350.331C783.095 352.648 817.653 356.452 817.653 356.452C817.653 356.452 788.744 525.993 792.716 528.215C796.687 530.436 809.516 532.727 813.794 528.751C816.237 526.494 821.607 471.684 825.794 424.76" stroke="black" stroke-linecap="round" stroke-linejoin="round"/>
<path d="M870.913 283.29C869.874 266.841 868.802 253.463 868.802 253.463C868.802 253.463 783.269 252.956 781.038 259.807C780.067 264.825 779.43 269.872 779.131 274.916" stroke="black" stroke-linecap="round" stroke-linejoin="round"/>
<path d="M826.724 414.197C829.447 383.173 831.461 357.972 831.461 357.972C831.461 357.972 867.961 347.742 871.69 341.921C873.658 338.829 872.753 314.008 871.418 291.445" stroke="black" stroke-linecap="round" stroke-linejoin="round"/>
<path d="M807.746 323.79L807.665 329.807C807.653 330.73 807.458 331.657 807.091 332.535C806.724 333.413 806.192 334.226 805.527 334.926C804.861 335.627 804.074 336.202 803.211 336.617C802.347 337.033 801.425 337.282 800.496 337.35C798.622 337.484 796.836 336.875 795.53 335.655C794.224 334.436 793.504 332.706 793.529 330.845L794.25 276.43C794.285 274.572 795.058 272.74 796.4 271.332C797.742 269.924 799.544 269.055 801.414 268.914C802.343 268.845 803.261 268.959 804.114 269.249C804.968 269.539 805.741 270 806.389 270.604C807.038 271.208 807.548 271.944 807.892 272.771C808.236 273.597 808.407 274.497 808.394 275.42L807.911 311.523" stroke="black" stroke-linecap="round" stroke-linejoin="round"/>
<path d="M826.273 335.425C824.397 335.559 822.61 334.95 821.301 333.73C819.993 332.511 819.271 330.78 819.293 328.919L820.027 274.504C820.039 273.582 820.234 272.655 820.601 271.776C820.968 270.898 821.5 270.085 822.165 269.385C822.831 268.684 823.618 268.11 824.481 267.694C825.345 267.278 826.267 267.029 827.196 266.961C828.125 266.893 829.041 267.007 829.894 267.297C830.747 267.588 831.519 268.048 832.166 268.652C832.813 269.256 833.323 269.992 833.665 270.819C834.008 271.645 834.177 272.544 834.163 273.466L833.442 327.882C833.43 328.804 833.235 329.731 832.868 330.61C832.501 331.488 831.969 332.301 831.304 333.001C830.638 333.702 829.851 334.276 828.988 334.692C828.124 335.108 827.202 335.357 826.273 335.425Z" stroke="black" stroke-linecap="round" stroke-linejoin="round"/>
<path d="M845.394 302.582L845.844 272.597C845.843 271.675 846.026 270.746 846.383 269.863C846.739 268.98 847.262 268.161 847.92 267.453C848.579 266.745 849.361 266.161 850.221 265.737C851.082 265.312 852.003 265.053 852.933 264.977C853.862 264.908 854.78 265.023 855.634 265.313C856.487 265.603 857.261 266.063 857.909 266.667C858.557 267.271 859.068 268.008 859.412 268.834C859.755 269.66 859.926 270.56 859.913 271.483L859.192 325.899C859.188 326.824 859 327.755 858.638 328.639C858.277 329.523 857.749 330.342 857.086 331.05C856.422 331.757 855.636 332.339 854.772 332.762C853.907 333.184 852.983 333.44 852.05 333.513C851.121 333.581 850.203 333.467 849.349 333.177C848.496 332.887 847.723 332.427 847.075 331.823C846.426 331.219 845.916 330.482 845.572 329.656C845.228 328.83 845.057 327.93 845.07 327.007L845.288 310.806" stroke="black" stroke-linecap="round" stroke-linejoin="round"/>
</g>
<g opacity="0.3">
<path d="M753.655 582.117C753.655 582.117 755.463 578.802 753.181 569.711C750.9 560.62 739.615 552.967 739.615 552.967C739.615 552.967 739.372 548.246 745.172 548.294C750.972 548.342 756.349 556.566 758.558 563.261C760.766 569.955 761.205 582.33 761.205 582.33C761.205 582.33 767.575 576.566 775.077 576.816C782.579 577.065 792.733 581.683 792.733 581.683L775.398 586.817L771.176 587.532" stroke="black" stroke-linecap="round" stroke-linejoin="round"/>
<path d="M769.827 591.474C769.827 591.474 776.327 591.009 778.833 595.98C781.339 600.95 785.568 611.972 785.568 611.972C785.568 611.972 771.005 606.25 765.182 603.276C759.358 600.301 756.971 591.816 756.971 591.816L745.953 603.506L729.117 609.285L739.56 591.656L744.448 584.576C744.448 584.576 739.331 586.937 735.896 586.559C732.46 586.18 721.905 586.858 721.905 586.858C721.905 586.858 737.467 575.654 742.819 575.076C746.029 574.731 749.166 575.488 751.703 577.221" stroke="black" stroke-linecap="round" stroke-linejoin="round"/>
<path d="M726.896 576.193C726.896 576.193 714.459 577.171 703.611 602.95C692.763 628.728 716.002 658.287 737.637 663.606C759.271 668.925 782.475 666.195 800.514 636.5C818.554 606.804 806.788 583.807 799.614 576.003" stroke="black" stroke-linecap="round" stroke-linejoin="round"/>
<path d="M792.905 571.723C792.905 571.723 786.383 563.373 765.238 564.559" stroke="black" stroke-linecap="round" stroke-linejoin="round"/>
</g>
<g opacity="0.3">
<path d="M701.759 685.832C701.759 685.832 703.054 683.462 701.414 676.995C699.773 670.528 691.724 665.029 691.724 665.029C691.724 665.029 691.556 661.661 695.7 661.692C699.844 661.723 703.68 667.608 705.238 672.351C706.796 677.093 707.133 685.97 707.133 685.97C707.133 685.97 711.669 681.858 717.035 682.037C722.401 682.216 729.645 685.511 729.645 685.511L717.289 689.189L714.292 689.696" stroke="black" stroke-linecap="round" stroke-linejoin="round"/>
<path d="M713.306 692.541C713.306 692.541 717.942 692.214 719.732 695.774C721.522 699.334 724.55 707.189 724.55 707.189C724.55 707.189 714.139 703.119 709.989 700.974C705.839 698.829 704.127 692.793 704.127 692.793L696.254 701.151L684.224 705.317L691.675 692.74L695.168 687.634C693.23 688.539 691.151 689.022 689.081 689.05C686.644 688.782 679.076 689.212 679.076 689.212C679.076 689.212 690.173 681.209 694.023 680.795C696.313 680.551 698.551 681.093 700.36 682.33" stroke="black" stroke-linecap="round" stroke-linejoin="round"/>
<path d="M682.627 681.626C682.627 681.626 673.769 682.326 666 700.743C658.231 719.16 674.833 740.26 690.29 744.062C705.747 747.863 722.32 745.913 735.208 724.71C748.096 703.507 739.693 687.071 734.56 681.482" stroke="black" stroke-linecap="round" stroke-linejoin="round"/>
<path d="M729.783 678.444C729.783 678.444 725.153 672.443 710.026 673.331" stroke="black" stroke-linecap="round" stroke-linejoin="round"/>
</g>
<g opacity="0.3">
<path d="M810.044 706.045C810.044 706.045 812.24 706.643 817.856 703.747C823.473 700.852 827.783 692.486 827.783 692.486C827.783 692.486 830.751 691.578 831.026 695.232C831.301 698.886 826.364 703.586 822.238 706.028C818.388 707.986 814.385 709.574 810.287 710.766C812.649 712.692 814.148 715.472 814.504 718.588C814.739 723.349 812.322 730.454 812.322 730.454L808.178 720.389L807.518 717.86" stroke="black" stroke-linecap="round" stroke-linejoin="round"/>
<path d="M804.921 717.711C804.921 717.711 805.495 721.714 802.537 724.092C799.58 726.471 792.749 730.908 792.749 730.908C792.749 730.908 795.614 720.832 797.199 716.71C798.785 712.588 804.02 709.692 804.02 709.692L796.036 704.695L791.554 695.032L803.262 698.736L808.018 700.633C807.06 699.136 806.468 697.416 806.287 695.597C806.339 693.392 805.423 686.84 805.423 686.84C805.423 686.84 813.313 694.805 813.963 698.075C814.347 700.037 814.027 702.129 813.057 704.001" stroke="black" stroke-linecap="round" stroke-linejoin="round"/>
<path d="M812.389 688.294C812.389 688.294 811.168 680.664 794.224 677.989C777.28 675.314 759.799 694.693 757.559 709.134C755.32 723.576 758.228 737.718 777.977 744.258C797.726 750.797 811.682 739.732 816.28 733.924" stroke="black" stroke-linecap="round" stroke-linejoin="round"/>
<path d="M818.633 729.009C818.633 729.009 823.577 723.582 821.729 710.489" stroke="black" stroke-linecap="round" stroke-linejoin="round"/>
</g>
<g opacity="0.3">
<path d="M729.271 770.605C729.271 770.605 698.088 749.972 692.321 761.939C686.555 773.905 702.328 780.254 701.946 793.966C701.564 807.678 710.851 817.883 727.122 816.229C743.392 814.575 756.452 794.228 751.088 781.023" stroke="black" stroke-linecap="round" stroke-linejoin="round"/>
<path d="M702.422 814.663C702.422 814.663 697.296 811.806 693.337 826.277C689.377 840.749 710.96 858.032 731.196 853.369C751.432 848.706 777.432 832.09 768.703 795.576" stroke="black" stroke-linecap="round" stroke-linejoin="round"/>
<path d="M694.539 818.846C694.539 818.846 681.971 815.993 675.535 829.012C669.099 842.03 678.338 856.774 697.362 861.325C716.386 865.876 736.647 854.366 736.647 854.366" stroke="black" stroke-linecap="round" stroke-linejoin="round"/>
<path d="M687.966 815.185C687.966 815.185 683.77 809.329 678.247 807.732C672.724 806.136 664.917 794.007 665.955 788.727C666.992 783.446 657.097 781.877 651.12 792.488C645.144 803.1 642.707 825.398 648.528 837.803C654.349 850.208 666.264 858.877 678.331 859.231" stroke="black" stroke-linecap="round" stroke-linejoin="round"/>
<path d="M708.042 814.445C708.042 814.445 724.705 826.094 740.2 818.973C755.694 811.853 756.991 797.774 756.122 787.384" stroke="black" stroke-linecap="round" stroke-linejoin="round"/>
<path d="M680.553 818.282C680.553 818.282 668.953 822.893 666.03 837.767C663.107 852.641 683.576 859.808 683.576 859.808" stroke="black" stroke-linecap="round" stroke-linejoin="round"/>
<path d="M734.98 771.315C734.98 771.315 743.811 773.18 747.448 777.108" stroke="black" stroke-linecap="round" stroke-linejoin="round"/>
</g>
<g opacity="0.3">
<path d="M589.988 844.865C589.988 844.865 628.725 836.611 624.759 824.74C620.792 812.869 604.086 819.718 594.75 810.455C585.414 801.191 570.954 801.04 559.51 813.439C548.067 825.837 552.246 848.328 565.707 853.215" stroke="black" stroke-linecap="round" stroke-linejoin="round"/>
<path d="M579.785 797.291C579.785 797.291 585.766 795.589 578.665 783.331C571.563 771.074 542.615 774.861 530.179 792.036C517.742 809.212 509.275 838.245 541.777 856.044" stroke="black" stroke-linecap="round" stroke-linejoin="round"/>
<path d="M582.956 789.047C582.956 789.047 594.727 782.107 590.557 769.129C586.386 756.152 568.818 752.914 550.834 763.219C532.85 773.525 525.243 795.199 525.243 795.199" stroke="black" stroke-linecap="round" stroke-linejoin="round"/>
<path d="M590.64 786.859C590.64 786.859 598.026 787.768 603.424 784.945C608.823 782.121 623.462 784.611 626.359 788.842C629.255 793.073 638.068 787.139 635.218 776.091C632.369 765.043 618.563 748.684 605.308 744.617C592.053 740.55 576.687 743.21 567.066 751.389" stroke="black" stroke-linecap="round" stroke-linejoin="round"/>
<path d="M575.57 801.357C575.57 801.357 554.375 805.366 547.413 820.852C540.451 836.338 549.307 846.455 557.301 852.647" stroke="black" stroke-linecap="round" stroke-linejoin="round"/>
<path d="M594.203 779.647C594.203 779.647 599.966 768.531 591.749 756.755C583.533 744.979 562.613 754.577 562.613 754.577" stroke="black" stroke-linecap="round" stroke-linejoin="round"/>
<path d="M585.036 848.383C585.036 848.383 576.866 853.332 571.279 853.307" stroke="black" stroke-linecap="round" stroke-linejoin="round"/>
</g>
<g opacity="0.3">
<path d="M303.629 575.812C331.29 566.69 360.459 567.354 385.98 577.685C411.5 588.016 431.728 607.35 443.088 632.269C454.448 657.187 456.209 686.086 448.058 713.857C439.908 741.627 422.371 766.48 398.549 784.023" stroke="black" stroke-linecap="round" stroke-linejoin="round"/>
<path d="M390.829 789.323C376.069 798.696 359.762 805.046 342.959 807.963C326.157 810.879 309.232 810.299 293.275 806.258C277.319 802.217 262.685 794.806 250.317 784.501C237.949 774.197 228.122 761.229 221.469 746.433C214.816 731.637 211.485 715.342 211.69 698.597C211.896 681.852 215.633 665.03 222.661 649.215C229.69 633.401 239.853 618.944 252.497 606.777C265.14 594.61 279.983 585.004 296.068 578.577" stroke="black" stroke-linecap="round" stroke-linejoin="round"/>
<path d="M407.697 711.372C402.817 724.564 394.714 736.579 384.165 746.268C373.616 755.957 360.973 762.997 347.446 766.713C333.918 770.43 319.958 770.7 306.9 767.496C293.843 764.293 282.125 757.723 272.867 748.416" stroke="black" stroke-linecap="round" stroke-linejoin="round"/>
<path d="M266.58 741.163C259.042 731.148 254.252 719.227 252.627 706.442C251.003 693.656 252.593 680.394 257.26 667.814C261.927 655.234 269.528 643.718 279.4 634.272C289.272 624.825 301.115 617.735 313.894 613.621C326.674 609.507 340.001 608.493 352.714 610.669C365.426 612.844 377.137 618.143 386.823 626.102C396.51 634.062 403.877 644.439 408.283 656.329C412.689 668.22 413.999 681.261 412.099 694.314" stroke="black" stroke-linecap="round" stroke-linejoin="round"/>
<path d="M300.576 652.565L330.034 655.808C331.291 655.947 332.398 656.583 333.111 657.578C333.824 658.573 334.084 659.845 333.835 661.113L330.83 676.404" stroke="black" stroke-linecap="round" stroke-linejoin="round"/>
<path d="M329.073 685.545L322.643 718.262C322.52 718.889 322.275 719.497 321.923 720.05C321.571 720.604 321.118 721.092 320.59 721.486C320.063 721.881 319.471 722.174 318.849 722.35C318.227 722.526 317.587 722.58 316.965 722.51L267.558 717.071C266.936 717.004 266.343 716.814 265.815 716.512C265.287 716.209 264.833 715.801 264.48 715.309C264.127 714.818 263.881 714.253 263.756 713.647C263.632 713.041 263.631 712.406 263.754 711.779L274.984 654.635C275.233 653.367 275.972 652.205 277.037 651.406C278.102 650.607 279.407 650.236 280.665 650.374L292.917 651.723" stroke="black" stroke-linecap="round" stroke-linejoin="round"/>
<path d="M285.776 662.166C285.722 662.454 285.584 662.727 285.379 662.951C285.175 663.174 284.914 663.337 284.628 663.42C284.343 663.502 284.047 663.5 283.778 663.414C283.508 663.328 283.278 663.161 283.116 662.935C282.954 662.709 282.868 662.434 282.868 662.145C282.869 661.856 282.956 661.567 283.119 661.313C283.282 661.06 283.512 660.854 283.782 660.721C284.052 660.589 284.348 660.537 284.633 660.571C285.011 660.613 285.344 660.804 285.558 661.103C285.772 661.402 285.851 661.784 285.776 662.166Z" stroke="black" stroke-linecap="round" stroke-linejoin="round"/>
<path d="M297.211 664.894C297.998 664.98 298.763 664.407 298.919 663.613C299.075 662.819 298.563 662.105 297.777 662.018C296.99 661.932 296.225 662.505 296.069 663.299C295.913 664.093 296.424 664.807 297.211 664.894Z" stroke="black" stroke-linecap="round" stroke-linejoin="round"/>
<path d="M310.37 666.342C311.157 666.428 311.921 665.855 312.077 665.061C312.233 664.267 311.722 663.553 310.935 663.466C310.148 663.38 309.383 663.953 309.227 664.747C309.071 665.541 309.583 666.255 310.37 666.342Z" stroke="black" stroke-linecap="round" stroke-linejoin="round"/>
<path d="M323.514 667.788C324.301 667.875 325.066 667.301 325.222 666.507C325.378 665.713 324.866 664.999 324.079 664.913C323.292 664.826 322.528 665.4 322.372 666.194C322.216 666.988 322.727 667.701 323.514 667.788Z" stroke="black" stroke-linecap="round" stroke-linejoin="round"/>
<path d="M283.543 673.531C283.489 673.82 283.351 674.093 283.147 674.316C282.943 674.54 282.681 674.703 282.396 674.786C282.111 674.868 281.814 674.866 281.545 674.78C281.276 674.693 281.046 674.526 280.884 674.3C280.722 674.074 280.636 673.8 280.636 673.511C280.637 673.222 280.724 672.932 280.886 672.679C281.049 672.425 281.28 672.219 281.55 672.087C281.819 671.955 282.116 671.903 282.401 671.937C282.779 671.978 283.111 672.17 283.326 672.469C283.54 672.768 283.618 673.15 283.543 673.531Z" stroke="black" stroke-linecap="round" stroke-linejoin="round"/>
<path d="M296.701 674.98C296.647 675.268 296.51 675.541 296.306 675.764C296.103 675.987 295.842 676.15 295.557 676.233C295.273 676.316 294.977 676.315 294.708 676.23C294.439 676.145 294.208 675.979 294.046 675.754C293.883 675.53 293.795 675.256 293.794 674.968C293.793 674.68 293.878 674.39 294.039 674.136C294.2 673.882 294.429 673.675 294.697 673.541C294.965 673.407 295.261 673.353 295.546 673.384C295.734 673.403 295.914 673.459 296.074 673.55C296.235 673.641 296.373 673.764 296.48 673.912C296.587 674.061 296.662 674.231 296.7 674.415C296.738 674.598 296.739 674.79 296.701 674.98Z" stroke="black" stroke-linecap="round" stroke-linejoin="round"/>
<path d="M309.846 676.427C309.792 676.716 309.654 676.989 309.45 677.212C309.245 677.436 308.984 677.599 308.699 677.682C308.413 677.764 308.117 677.762 307.848 677.676C307.579 677.589 307.348 677.422 307.186 677.196C307.025 676.97 306.938 676.696 306.939 676.407C306.939 676.118 307.026 675.828 307.189 675.575C307.352 675.321 307.583 675.115 307.852 674.983C308.122 674.851 308.418 674.799 308.703 674.833C309.081 674.874 309.414 675.066 309.628 675.365C309.843 675.664 309.921 676.046 309.846 676.427Z" stroke="black" stroke-linecap="round" stroke-linejoin="round"/>
<path d="M323 677.876C322.946 678.164 322.809 678.437 322.605 678.66C322.401 678.883 322.141 679.047 321.856 679.13C321.572 679.213 321.276 679.212 321.007 679.126C320.738 679.041 320.507 678.876 320.345 678.651C320.182 678.426 320.094 678.153 320.093 677.864C320.092 677.576 320.177 677.287 320.338 677.033C320.498 676.779 320.728 676.572 320.996 676.438C321.264 676.304 321.559 676.249 321.844 676.28C322.033 676.299 322.213 676.356 322.373 676.446C322.533 676.537 322.671 676.66 322.779 676.809C322.886 676.957 322.961 677.128 322.999 677.311C323.037 677.494 323.038 677.686 323 677.876Z" stroke="black" stroke-linecap="round" stroke-linejoin="round"/>
<path d="M281.31 684.899C281.254 685.187 281.114 685.459 280.908 685.68C280.702 685.901 280.441 686.063 280.155 686.143C279.87 686.223 279.575 686.219 279.307 686.132C279.039 686.044 278.81 685.876 278.649 685.65C278.489 685.423 278.404 685.148 278.406 684.86C278.407 684.572 278.495 684.283 278.658 684.03C278.821 683.778 279.052 683.572 279.321 683.441C279.59 683.309 279.886 683.257 280.17 683.291C280.359 683.312 280.538 683.37 280.697 683.462C280.856 683.555 280.993 683.679 281.099 683.828C281.205 683.978 281.278 684.15 281.314 684.333C281.351 684.517 281.349 684.709 281.31 684.899Z" stroke="black" stroke-linecap="round" stroke-linejoin="round"/>
<path d="M294.47 686.347C294.414 686.634 294.274 686.905 294.069 687.126C293.865 687.348 293.603 687.509 293.319 687.59C293.035 687.671 292.74 687.668 292.472 687.581C292.204 687.494 291.975 687.328 291.813 687.103C291.652 686.878 291.566 686.604 291.566 686.316C291.566 686.029 291.651 685.74 291.812 685.487C291.973 685.234 292.202 685.027 292.47 684.894C292.738 684.761 293.033 684.706 293.317 684.737C293.507 684.757 293.688 684.814 293.849 684.905C294.01 684.997 294.148 685.121 294.255 685.271C294.363 685.421 294.437 685.593 294.474 685.778C294.511 685.963 294.51 686.156 294.47 686.347Z" stroke="black" stroke-linecap="round" stroke-linejoin="round"/>
<path d="M307.611 687.795C307.554 688.083 307.414 688.355 307.209 688.576C307.003 688.797 306.741 688.959 306.456 689.039C306.171 689.119 305.876 689.115 305.608 689.028C305.339 688.94 305.111 688.772 304.95 688.546C304.79 688.319 304.705 688.044 304.706 687.756C304.708 687.468 304.796 687.179 304.959 686.926C305.122 686.674 305.352 686.468 305.622 686.337C305.891 686.205 306.187 686.153 306.471 686.187C306.659 686.208 306.838 686.266 306.998 686.358C307.157 686.451 307.294 686.575 307.4 686.724C307.506 686.874 307.579 687.046 307.615 687.229C307.651 687.413 307.65 687.605 307.611 687.795Z" stroke="black" stroke-linecap="round" stroke-linejoin="round"/>
<path d="M320.765 689.243C320.709 689.53 320.569 689.801 320.364 690.022C320.159 690.244 319.898 690.405 319.614 690.486C319.329 690.567 319.035 690.564 318.767 690.477C318.499 690.39 318.27 690.224 318.108 689.999C317.947 689.774 317.861 689.5 317.861 689.212C317.86 688.925 317.946 688.636 318.107 688.383C318.268 688.13 318.497 687.923 318.765 687.79C319.033 687.657 319.328 687.602 319.612 687.633C319.802 687.653 319.982 687.71 320.144 687.801C320.305 687.893 320.443 688.017 320.55 688.167C320.658 688.317 320.732 688.489 320.769 688.674C320.806 688.859 320.805 689.052 320.765 689.243Z" stroke="black" stroke-linecap="round" stroke-linejoin="round"/>
<path d="M279.074 696.266C279.017 696.554 278.877 696.826 278.672 697.047C278.466 697.269 278.204 697.43 277.919 697.51C277.634 697.591 277.339 697.587 277.071 697.499C276.802 697.411 276.574 697.243 276.413 697.017C276.253 696.79 276.168 696.516 276.169 696.227C276.171 695.939 276.259 695.65 276.422 695.397C276.585 695.145 276.815 694.94 277.085 694.808C277.354 694.676 277.65 694.624 277.934 694.658C278.122 694.679 278.301 694.737 278.461 694.829C278.62 694.922 278.757 695.046 278.863 695.196C278.969 695.345 279.042 695.517 279.078 695.701C279.114 695.884 279.113 696.077 279.074 696.266Z" stroke="black" stroke-linecap="round" stroke-linejoin="round"/>
<path d="M290.512 698.994C291.299 699.08 292.064 698.507 292.22 697.713C292.376 696.919 291.864 696.205 291.077 696.118C290.29 696.032 289.526 696.605 289.37 697.399C289.214 698.193 289.725 698.907 290.512 698.994Z" stroke="black" stroke-linecap="round" stroke-linejoin="round"/>
<path d="M303.67 700.442C304.457 700.529 305.222 699.956 305.378 699.162C305.534 698.368 305.022 697.654 304.235 697.567C303.449 697.48 302.684 698.054 302.528 698.848C302.372 699.642 302.883 700.356 303.67 700.442Z" stroke="black" stroke-linecap="round" stroke-linejoin="round"/>
<path d="M316.815 701.889C317.602 701.975 318.366 701.402 318.522 700.608C318.678 699.814 318.167 699.1 317.38 699.013C316.593 698.927 315.829 699.5 315.673 700.294C315.517 701.088 316.028 701.802 316.815 701.889Z" stroke="black" stroke-linecap="round" stroke-linejoin="round"/>
<path d="M276.842 707.619C276.788 707.908 276.65 708.181 276.446 708.404C276.241 708.628 275.98 708.791 275.695 708.874C275.409 708.956 275.113 708.954 274.844 708.867C274.575 708.781 274.344 708.614 274.183 708.388C274.021 708.162 273.934 707.887 273.935 707.599C273.935 707.31 274.023 707.02 274.185 706.767C274.348 706.513 274.579 706.307 274.849 706.175C275.118 706.043 275.415 705.991 275.7 706.025C276.077 706.066 276.41 706.258 276.624 706.557C276.839 706.856 276.917 707.238 276.842 707.619Z" stroke="black" stroke-linecap="round" stroke-linejoin="round"/>
<path d="M288.28 710.347C289.067 710.434 289.831 709.86 289.987 709.066C290.143 708.272 289.632 707.558 288.845 707.472C288.058 707.385 287.293 707.959 287.137 708.753C286.981 709.547 287.493 710.26 288.28 710.347Z" stroke="black" stroke-linecap="round" stroke-linejoin="round"/>
<path d="M301.44 711.795C302.227 711.882 302.991 711.309 303.147 710.515C303.303 709.721 302.792 709.007 302.005 708.92C301.218 708.833 300.454 709.407 300.298 710.201C300.142 710.995 300.653 711.709 301.44 711.795Z" stroke="black" stroke-linecap="round" stroke-linejoin="round"/>
<path d="M314.583 713.243C315.37 713.329 316.134 712.756 316.29 711.962C316.446 711.168 315.935 710.454 315.148 710.367C314.361 710.281 313.596 710.854 313.44 711.648C313.284 712.442 313.796 713.156 314.583 713.243Z" stroke="black" stroke-linecap="round" stroke-linejoin="round"/>
<path d="M342.701 730.024L328.686 717.637C327.781 716.819 327.27 715.648 327.264 714.379C327.259 713.111 327.759 711.848 328.656 710.866L369.032 666.444C369.936 665.468 371.161 664.855 372.441 664.738C373.72 664.622 374.95 665.012 375.862 665.823L411.868 697.638C412.776 698.454 413.29 699.626 413.296 700.895C413.301 702.165 412.798 703.428 411.898 704.409L371.463 748.784C370.561 749.763 369.335 750.378 368.055 750.495C366.774 750.611 365.544 750.219 364.634 749.404L349.054 735.637" stroke="black" stroke-linecap="round" stroke-linejoin="round"/>
<path d="M373.35 679.011C373.147 679.235 372.887 679.4 372.603 679.484C372.319 679.568 372.023 679.568 371.754 679.484C371.484 679.4 371.253 679.236 371.089 679.013C370.925 678.789 370.836 678.516 370.833 678.228C370.831 677.94 370.914 677.651 371.074 677.396C371.233 677.141 371.461 676.933 371.728 676.798C371.996 676.662 372.291 676.606 372.576 676.635C372.861 676.665 373.124 676.779 373.33 676.964C373.602 677.212 373.757 677.565 373.76 677.947C373.764 678.33 373.617 678.712 373.35 679.011Z" stroke="black" stroke-linecap="round" stroke-linejoin="round"/>
<path d="M382.925 687.479C382.723 687.698 382.466 687.858 382.185 687.939C381.904 688.021 381.613 688.019 381.347 687.935C381.082 687.851 380.854 687.688 380.693 687.467C380.532 687.246 380.444 686.976 380.442 686.692C380.439 686.408 380.521 686.123 380.678 685.871C380.834 685.619 381.059 685.413 381.322 685.278C381.585 685.144 381.876 685.086 382.158 685.113C382.44 685.141 382.7 685.251 382.906 685.431C383.181 685.677 383.338 686.031 383.341 686.414C383.345 686.798 383.195 687.181 382.925 687.479Z" stroke="black" stroke-linecap="round" stroke-linejoin="round"/>
<path d="M392.51 695.946C392.377 696.093 392.218 696.216 392.042 696.306C391.866 696.396 391.677 696.452 391.486 696.471C391.294 696.49 391.104 696.472 390.927 696.417C390.749 696.362 390.587 696.272 390.45 696.151C390.313 696.031 390.203 695.882 390.128 695.715C390.052 695.547 390.012 695.363 390.009 695.173C390.007 694.984 390.042 694.792 390.113 694.61C390.184 694.427 390.289 694.257 390.422 694.11C390.692 693.812 391.061 693.623 391.447 693.584C391.833 693.546 392.206 693.661 392.483 693.904C392.76 694.148 392.918 694.5 392.924 694.883C392.929 695.265 392.78 695.648 392.51 695.946Z" stroke="black" stroke-linecap="round" stroke-linejoin="round"/>
<path d="M402.099 704.414C401.898 704.636 401.641 704.798 401.36 704.881C401.079 704.964 400.786 704.964 400.519 704.881C400.253 704.798 400.024 704.636 399.861 704.415C399.699 704.193 399.611 703.923 399.608 703.639C399.605 703.354 399.687 703.067 399.844 702.815C400.001 702.563 400.226 702.356 400.491 702.221C400.755 702.087 401.047 702.03 401.329 702.058C401.612 702.087 401.872 702.199 402.077 702.38C402.352 702.624 402.509 702.975 402.513 703.356C402.517 703.738 402.368 704.118 402.099 704.414Z" stroke="black" stroke-linecap="round" stroke-linejoin="round"/>
<path d="M365.315 687.846C365.112 688.07 364.852 688.234 364.568 688.318C364.284 688.403 363.988 688.403 363.719 688.319C363.449 688.235 363.218 688.071 363.054 687.847C362.89 687.623 362.801 687.35 362.798 687.062C362.796 686.775 362.879 686.485 363.038 686.23C363.198 685.976 363.426 685.768 363.693 685.632C363.961 685.497 364.256 685.44 364.541 685.47C364.826 685.499 365.089 685.614 365.295 685.798C365.567 686.046 365.722 686.399 365.725 686.782C365.729 687.164 365.581 687.546 365.315 687.846Z" stroke="black" stroke-linecap="round" stroke-linejoin="round"/>
<path d="M374.967 696.321C374.764 696.545 374.504 696.709 374.22 696.793C373.936 696.878 373.64 696.878 373.371 696.794C373.101 696.71 372.87 696.546 372.706 696.322C372.542 696.098 372.453 695.825 372.451 695.538C372.448 695.25 372.531 694.96 372.691 694.706C372.85 694.451 373.078 694.243 373.345 694.107C373.613 693.972 373.908 693.915 374.193 693.945C374.478 693.975 374.741 694.089 374.948 694.274C375.22 694.522 375.374 694.874 375.377 695.257C375.381 695.639 375.234 696.021 374.967 696.321Z" stroke="black" stroke-linecap="round" stroke-linejoin="round"/>
<path d="M384.469 704.821C384.197 705.101 383.834 705.274 383.459 705.303C383.083 705.333 382.723 705.217 382.454 704.979C382.186 704.742 382.03 704.402 382.019 704.03C382.007 703.659 382.142 703.285 382.395 702.987C382.526 702.832 382.685 702.702 382.862 702.606C383.04 702.509 383.232 702.448 383.427 702.425C383.623 702.403 383.817 702.419 383.999 702.474C384.181 702.529 384.347 702.621 384.487 702.744C384.626 702.868 384.737 703.02 384.812 703.193C384.887 703.365 384.925 703.554 384.923 703.748C384.922 703.942 384.881 704.137 384.803 704.321C384.725 704.506 384.611 704.676 384.469 704.821Z" stroke="black" stroke-linecap="round" stroke-linejoin="round"/>
<path d="M394.063 713.248C393.931 713.396 393.772 713.519 393.597 713.609C393.421 713.7 393.232 713.756 393.041 713.775C392.85 713.793 392.661 713.774 392.484 713.718C392.307 713.662 392.146 713.57 392.01 713.448C391.865 713.33 391.749 713.182 391.667 713.014C391.585 712.845 391.54 712.658 391.534 712.465C391.528 712.271 391.562 712.076 391.633 711.889C391.704 711.702 391.811 711.529 391.948 711.378C392.085 711.228 392.248 711.104 392.429 711.014C392.609 710.924 392.803 710.87 392.998 710.854C393.194 710.839 393.387 710.863 393.566 710.925C393.745 710.987 393.907 711.085 394.041 711.214C394.179 711.334 394.289 711.481 394.364 711.649C394.44 711.816 394.48 712 394.482 712.189C394.484 712.379 394.448 712.57 394.376 712.752C394.304 712.933 394.198 713.102 394.063 713.248Z" stroke="black" stroke-linecap="round" stroke-linejoin="round"/>
<path d="M357.279 696.68C357.077 696.899 356.819 697.059 356.539 697.141C356.258 697.222 355.966 697.22 355.701 697.136C355.435 697.052 355.208 696.889 355.046 696.668C354.885 696.447 354.798 696.177 354.795 695.893C354.793 695.609 354.875 695.324 355.031 695.072C355.188 694.821 355.412 694.614 355.676 694.48C355.939 694.345 356.23 694.287 356.512 694.315C356.794 694.342 357.054 694.452 357.259 694.633C357.535 694.879 357.691 695.232 357.695 695.615C357.699 695.999 357.549 696.382 357.279 696.68Z" stroke="black" stroke-linecap="round" stroke-linejoin="round"/>
<path d="M366.868 705.147C366.589 705.409 366.231 705.565 365.864 705.585C365.497 705.605 365.147 705.487 364.885 705.254C364.623 705.022 364.467 704.692 364.448 704.329C364.429 703.967 364.548 703.599 364.783 703.298C365.056 703.005 365.426 702.82 365.812 702.783C366.198 702.746 366.57 702.859 366.849 703.1C366.987 703.221 367.097 703.37 367.172 703.538C367.248 703.707 367.288 703.892 367.29 704.082C367.292 704.273 367.255 704.465 367.183 704.648C367.11 704.831 367.003 705 366.868 705.147Z" stroke="black" stroke-linecap="round" stroke-linejoin="round"/>
<path d="M376.455 713.616C376.253 713.835 375.995 713.996 375.714 714.077C375.434 714.158 375.142 714.156 374.877 714.072C374.611 713.988 374.383 713.825 374.222 713.604C374.061 713.383 373.974 713.114 373.971 712.83C373.968 712.546 374.051 712.26 374.207 712.008C374.364 711.757 374.588 711.55 374.851 711.416C375.115 711.281 375.406 711.223 375.688 711.251C375.969 711.278 376.229 711.389 376.435 711.569C376.71 711.815 376.867 712.168 376.871 712.552C376.874 712.935 376.725 713.318 376.455 713.616Z" stroke="black" stroke-linecap="round" stroke-linejoin="round"/>
<path d="M386.031 722.082C385.83 722.304 385.573 722.466 385.291 722.549C385.01 722.632 384.718 722.632 384.451 722.549C384.184 722.466 383.955 722.304 383.793 722.083C383.631 721.861 383.543 721.591 383.539 721.307C383.536 721.022 383.619 720.735 383.776 720.483C383.933 720.231 384.158 720.024 384.422 719.889C384.687 719.755 384.978 719.698 385.261 719.726C385.543 719.755 385.804 719.867 386.009 720.048C386.147 720.168 386.257 720.316 386.332 720.483C386.408 720.65 386.448 720.834 386.45 721.024C386.452 721.213 386.416 721.404 386.344 721.586C386.272 721.768 386.166 721.936 386.031 722.082Z" stroke="black" stroke-linecap="round" stroke-linejoin="round"/>
<path d="M349.262 705.515C349.059 705.739 348.799 705.904 348.515 705.988C348.231 706.072 347.935 706.072 347.666 705.988C347.396 705.904 347.165 705.74 347.001 705.516C346.837 705.293 346.748 705.02 346.746 704.732C346.743 704.444 346.826 704.155 346.986 703.9C347.145 703.645 347.373 703.437 347.64 703.302C347.908 703.166 348.203 703.11 348.488 703.139C348.773 703.169 349.036 703.283 349.242 703.468C349.515 703.716 349.669 704.069 349.672 704.451C349.676 704.834 349.529 705.216 349.262 705.515Z" stroke="black" stroke-linecap="round" stroke-linejoin="round"/>
<path d="M358.832 713.982C358.63 714.201 358.372 714.361 358.091 714.442C357.81 714.524 357.519 714.522 357.253 714.438C356.988 714.354 356.76 714.191 356.599 713.97C356.438 713.749 356.351 713.479 356.348 713.195C356.345 712.911 356.427 712.625 356.584 712.374C356.741 712.122 356.965 711.916 357.228 711.781C357.492 711.647 357.783 711.589 358.064 711.616C358.346 711.644 358.606 711.754 358.812 711.934C358.95 712.055 359.06 712.204 359.136 712.373C359.212 712.541 359.251 712.726 359.253 712.917C359.255 713.107 359.219 713.299 359.146 713.482C359.074 713.665 358.967 713.835 358.832 713.982Z" stroke="black" stroke-linecap="round" stroke-linejoin="round"/>
<path d="M368.473 722.456C368.203 722.752 367.836 722.939 367.451 722.977C367.066 723.014 366.695 722.899 366.42 722.656C366.214 722.474 366.073 722.231 366.014 721.957C365.955 721.684 365.98 721.391 366.087 721.118C366.194 720.844 366.378 720.601 366.615 720.419C366.852 720.238 367.132 720.126 367.42 720.098C367.707 720.07 367.989 720.127 368.23 720.262C368.47 720.397 368.659 720.604 368.772 720.857C368.884 721.109 368.916 721.396 368.863 721.68C368.81 721.965 368.674 722.235 368.473 722.456Z" stroke="black" stroke-linecap="round" stroke-linejoin="round"/>
<path d="M378.011 730.917C377.811 731.139 377.553 731.301 377.272 731.384C376.991 731.467 376.698 731.467 376.432 731.384C376.165 731.301 375.936 731.139 375.774 730.918C375.611 730.696 375.523 730.426 375.52 730.141C375.517 729.857 375.599 729.57 375.756 729.318C375.913 729.066 376.138 728.859 376.403 728.724C376.667 728.59 376.959 728.533 377.241 728.561C377.524 728.589 377.784 728.702 377.989 728.883C378.264 729.127 378.421 729.478 378.425 729.859C378.429 730.24 378.28 730.621 378.011 730.917Z" stroke="black" stroke-linecap="round" stroke-linejoin="round"/>
<path d="M341.225 714.349C341.022 714.573 340.762 714.737 340.478 714.821C340.194 714.905 339.898 714.906 339.629 714.822C339.359 714.738 339.128 714.574 338.964 714.35C338.8 714.126 338.711 713.853 338.708 713.565C338.706 713.278 338.789 712.988 338.949 712.733C339.108 712.479 339.336 712.271 339.603 712.135C339.871 712 340.166 711.943 340.451 711.973C340.736 712.002 340.999 712.117 341.205 712.301C341.481 712.547 341.637 712.901 341.641 713.284C341.644 713.668 341.495 714.051 341.225 714.349Z" stroke="black" stroke-linecap="round" stroke-linejoin="round"/>
<path d="M350.809 722.817C350.606 723.041 350.346 723.205 350.062 723.29C349.778 723.374 349.482 723.374 349.213 723.29C348.943 723.206 348.712 723.042 348.548 722.818C348.384 722.595 348.295 722.322 348.292 722.034C348.29 721.746 348.373 721.456 348.533 721.202C348.692 720.947 348.92 720.739 349.187 720.603C349.455 720.468 349.75 720.411 350.035 720.441C350.32 720.471 350.583 720.585 350.789 720.77C351.061 721.018 351.216 721.371 351.219 721.753C351.223 722.136 351.076 722.517 350.809 722.817Z" stroke="black" stroke-linecap="round" stroke-linejoin="round"/>
<path d="M360.398 731.285C360.196 731.51 359.937 731.676 359.654 731.761C359.37 731.847 359.074 731.849 358.804 731.767C358.534 731.684 358.302 731.522 358.137 731.299C357.972 731.077 357.881 730.805 357.876 730.517C357.872 730.23 357.954 729.94 358.111 729.684C358.269 729.429 358.495 729.22 358.762 729.082C359.028 728.945 359.323 728.887 359.608 728.914C359.894 728.942 360.157 729.054 360.365 729.237C360.643 729.481 360.803 729.833 360.809 730.217C360.815 730.601 360.667 730.985 360.398 731.285Z" stroke="black" stroke-linecap="round" stroke-linejoin="round"/>
<path d="M369.973 739.752C369.841 739.9 369.682 740.023 369.507 740.113C369.331 740.203 369.143 740.259 368.951 740.278C368.76 740.296 368.571 740.277 368.394 740.221C368.217 740.165 368.056 740.073 367.92 739.951C367.776 739.834 367.659 739.686 367.577 739.517C367.495 739.348 367.45 739.161 367.444 738.968C367.438 738.775 367.472 738.579 367.543 738.392C367.614 738.206 367.721 738.032 367.858 737.882C367.995 737.731 368.158 737.607 368.339 737.517C368.519 737.427 368.713 737.373 368.908 737.358C369.104 737.343 369.297 737.367 369.476 737.428C369.655 737.49 369.817 737.589 369.951 737.718C370.089 737.837 370.199 737.985 370.275 738.152C370.35 738.32 370.391 738.503 370.393 738.693C370.395 738.882 370.359 739.073 370.287 739.255C370.215 739.437 370.108 739.606 369.973 739.752Z" stroke="black" stroke-linecap="round" stroke-linejoin="round"/>
</g>
<g opacity="0.3">
<path d="M359.203 418.777L383.462 410.466L395.811 456.739C399.399 470.204 397.324 485.009 390.043 497.899C382.763 510.788 370.871 520.708 356.983 525.477C343.093 530.238 328.347 529.456 315.985 523.305C303.624 517.154 294.66 506.137 291.062 492.675L286.935 477.121" stroke="black" stroke-linecap="round" stroke-linejoin="round"/>
<path d="M285.706 472.566L278.715 446.388L353.527 420.719" stroke="black" stroke-linecap="round" stroke-linejoin="round"/>
<path d="M408.707 483.114C404.434 484.222 400.043 484.299 395.914 483.339" stroke="black" stroke-linecap="round" stroke-linejoin="round"/>
<path d="M388.063 427.69C390.28 426.163 392.682 424.947 395.193 424.083C410.542 418.813 426.5 427.612 430.785 443.746C434.379 457.236 428.685 471.599 417.721 478.999" stroke="black" stroke-linecap="round" stroke-linejoin="round"/>
<path d="M391.393 440.165C393.341 438.177 395.719 436.668 398.309 435.779C407.505 432.673 417.073 437.844 419.651 447.572C422.23 457.3 416.852 467.634 407.648 470.78C404.291 471.94 400.741 472.03 397.516 471.038" stroke="black" stroke-linecap="round" stroke-linejoin="round"/>
<path d="M302.517 467.47C314.207 470.295 310.306 477.127 301.285 469.654C297.43 481.584 290.869 478.281 299.19 468.614C287.498 465.803 291.401 458.958 300.422 466.43C304.282 454.542 310.825 457.87 302.517 467.47Z" stroke="black" stroke-linecap="round" stroke-linejoin="round"/>
<path d="M322.224 460.718C333.916 463.529 330 470.373 320.978 462.901C317.124 474.83 310.562 471.527 318.884 461.86C307.194 459.036 311.11 452.192 320.129 459.677C323.978 447.775 330.545 451.051 322.224 460.718Z" stroke="black" stroke-linecap="round" stroke-linejoin="round"/>
<path d="M341.922 453.95C353.612 456.774 349.709 463.62 340.69 456.134C336.823 468.062 330.274 464.761 338.596 455.094C326.903 452.283 330.806 445.437 339.828 452.91C343.674 441.02 350.244 444.283 341.922 453.95Z" stroke="black" stroke-linecap="round" stroke-linejoin="round"/>
<path d="M361.629 447.197C373.319 450.021 369.405 456.851 360.384 449.379C356.529 461.309 349.967 458.006 358.289 448.339C346.596 445.528 350.5 438.683 359.521 446.155C363.381 434.267 369.951 437.529 361.629 447.197Z" stroke="black" stroke-linecap="round" stroke-linejoin="round"/>
<path d="M381.324 440.443C393.016 443.254 389.113 450.1 380.092 442.627C376.224 454.556 369.662 451.253 377.997 441.587C366.307 438.763 370.21 431.917 379.229 439.403C383.078 427.5 389.645 430.776 381.324 440.443Z" stroke="black" stroke-linecap="round" stroke-linejoin="round"/>
<path d="M302.6 344.585C298.397 344.909 294.203 345.671 290.085 346.858" stroke="black" stroke-linecap="round" stroke-linejoin="round"/>
<path d="M305.761 431.233C305.761 431.233 299.645 427.046 317.378 409.986C335.111 392.927 341.979 370.649 331.176 354.937C326.317 347.882 318.457 345.301 310.877 344.618" stroke="black" stroke-linecap="round" stroke-linejoin="round"/>
<path d="M348.078 384.677C340.446 395.82 329.261 405.103 329.34 412.25C329.457 421.762 346.644 420.153 346.644 420.153" stroke="black" stroke-linecap="round" stroke-linejoin="round"/>
<path d="M343.312 346.211C343.312 346.211 358.668 356.412 353.943 372.913C353.469 374.519 352.873 376.096 352.158 377.631" stroke="black" stroke-linecap="round" stroke-linejoin="round"/>
</g>
<g opacity="0.3">
<path d="M478.96 202.903C478.96 202.903 472.099 188.243 450.454 189.69C428.81 191.137 417.776 216.126 417.776 216.126C417.776 216.126 405.074 209.731 389.536 221.363C370.238 235.793 375.383 249.839 375.383 249.839C375.383 249.839 352.602 253.467 345.497 274.181C338.393 294.895 341.682 312.91 367.455 321.128C393.228 329.346 403.651 326.705 403.651 326.705" stroke="black" stroke-linecap="round" stroke-linejoin="round"/>
<path d="M484.932 211.234C484.932 211.234 499.26 231.232 495.75 253.111C492.239 274.989 487.902 281.416 487.902 281.416" stroke="black" stroke-linecap="round" stroke-linejoin="round"/>
<path d="M412.289 321.452C418.298 309.677 427.509 299.624 438.776 292.54C450.044 285.457 462.873 281.655 475.669 281.607" stroke="black" stroke-linecap="round" stroke-linejoin="round"/>
<path d="M410.813 328.976L435.319 374.652C435.319 374.652 444.906 350.999 502.514 330.423L486.7 291.263" stroke="black" stroke-linecap="round" stroke-linejoin="round"/>
<path d="M437.529 375.856C437.529 375.856 443 375.086 457.944 369.867C477.016 363.237 506.459 338.654 504.963 332.834" stroke="black" stroke-linecap="round" stroke-linejoin="round"/>
<path d="M369.312 271.669C369.312 271.669 370.01 251.156 387.15 248.678" stroke="black" stroke-linecap="round" stroke-linejoin="round"/>
<path d="M409.542 226.682C409.542 226.682 416.226 212.057 435.125 215.099" stroke="black" stroke-linecap="round" stroke-linejoin="round"/>
</g>
</svg>
